<?xml version="1.0" encoding="iso-8859-1"?>
<!-- Generator: Adobe Illustrator 13.0.2, SVG Export Plug-In . SVG Version: 6.00 Build 14948)  -->
<!DOCTYPE svg PUBLIC "-//W3C//DTD SVG 1.1//EN" "http://www.w3.org/Graphics/SVG/1.1/DTD/svg11.dtd">
<svg version="1.1" id="Layer_1" xmlns="http://www.w3.org/2000/svg" xmlns:xlink="http://www.w3.org/1999/xlink" x="0px" y="0px"
	 width="279.977px" height="333.782px" viewBox="0 0 279.977 333.782" style="enable-background:new 0 0 279.977 333.782;"
	 xml:space="preserve">
<g>
	<path style="fill-rule:evenodd;clip-rule:evenodd;fill:#0071BC;" d="M13.027,142.542c0.311-30.046-0.583-62.319,1.408-92.27
		c1.049-15.784-1.376-31.1,1.409-45.079c-0.061-1-0.117-1.995,0.704-2.113c6.923,1.333,17.447-2.589,23.244,2.113
		c3.054,2.477,4.435,10.686,4.226,15.496c-0.217,4.993-2.353,10.469-3.522,16.2C33.586,70.759,20.71,111.046,13.027,142.542z"/>
	<path style="fill-rule:evenodd;clip-rule:evenodd;fill:#3D6DAC;" d="M45.427,10.124c1.45,1.837,2.735,3.839,4.226,5.635
		C47.074,15.051,44.926,13.912,45.427,10.124z"/>
	<path style="fill-rule:evenodd;clip-rule:evenodd;fill:#FFFFFF;" d="M55.288,12.941c23.979-2.533,50.312-0.493,75.366,0
		c3.287,0,6.574,0,9.861,0c-1.436,1.617-5.85,0.255-8.452,0.705C99.896,13.776,87.69,12.828,55.288,12.941z"/>
	<path style="fill-rule:evenodd;clip-rule:evenodd;fill:#FFFFFF;" d="M50.358,12.941c0.087-1.556,2.988-0.299,4.226-0.704
		C54.496,13.792,51.596,12.536,50.358,12.941z"/>
	<path style="fill-rule:evenodd;clip-rule:evenodd;fill:#FFFFFF;" d="M163.758,12.941C160.759,15.098,157.738,12.078,163.758,12.941
		L163.758,12.941z"/>
	<path style="fill-rule:evenodd;clip-rule:evenodd;fill:#FFFFFF;" d="M51.767,15.054c0.749-1.599,4.427-0.268,6.339-0.705
		C57.356,15.948,53.678,14.618,51.767,15.054z"/>
	<path style="fill-rule:evenodd;clip-rule:evenodd;fill:#FFFFFF;" d="M257.438,15.758c-26.061,0.332-67.751-0.219-102.132,0
		c-1.238-0.405-4.138,0.852-4.226-0.704c1.408,0,2.817,0,4.226,0c1.409,0,2.817,0,4.227,0c1.408,0,2.817,0,4.226,0
		c5.87,0,11.739,0,17.609,0C205.844,15.356,231.499,14.112,257.438,15.758z"/>
	<path style="fill-rule:evenodd;clip-rule:evenodd;fill:#FFFFFF;" d="M134.88,15.758c-0.119-1.527,2.498-0.319,3.522-0.704
		C138.521,16.582,135.903,15.374,134.88,15.758z"/>
	<path style="fill-rule:evenodd;clip-rule:evenodd;fill:#FFFFFF;" d="M258.142,15.054c1.653,0.225,2.644,1.113,4.931,0.704
		C262.902,16.777,257.275,17.396,258.142,15.054z"/>
	<path style="fill-rule:evenodd;clip-rule:evenodd;fill:#3D6DAC;" d="M46.132,15.758c2.807,1.184,6.409,1.573,7.043,4.931
		C50.705,19.167,45.729,20.153,46.132,15.758z"/>
	<path style="fill-rule:evenodd;clip-rule:evenodd;" d="M196.863,26.324c-0.33,1.22-0.353,3.357-0.705,6.339
		c-0.32,2.717,0.188,5.778-1.408,7.748c-29.943-2.109-66.494,0.21-95.792-0.704c-1.63-2.831-1.541-7.381-1.409-11.974
		c-0.8-0.134-0.391-0.707,0-0.704C128.48,26.597,165.696,27.732,196.863,26.324z M174.323,29.846
		c-3.387-1.565-16.038-0.283-21.835-0.705c-14.31-0.624-34.591,0.409-52.826,0c-0.061,3.583-0.309,7.352,1.409,9.157
		c11.993,0.488,22.306-0.703,33.809-0.705c-0.887-2.641-4.706-1.338-7.043-1.409c-8.862-0.266-20.156,1.279-26.061-1.409
		c1.123-1.927-0.35-3.003,1.409-4.93c12.079,1.525,28.761-1.467,39.444,1.409c0.302,1.341,1.517,1.77,1.409,3.521
		c-0.061,2.992-6.279-0.174-6.339,2.817c4.619,0.733,7.656-0.289,13.383,0c0.692-0.06-2.362-6.018,0-7.748
		C158.828,29.846,166.576,29.846,174.323,29.846z M177.846,29.846c4.323,0.372,10.196-0.806,13.383,0.704
		c0.701,1.833,0.15,4.237-0.705,6.339c-2.141,0.441-6.066-0.902-7.043,0.704c1.199,0.476,7.066,1.491,9.86,0
		c1.387-1.9,0.42-6.155,0.704-9.156C188.357,28.31,179.088,28.655,177.846,29.846z M174.323,31.254
		c-4.438-0.082-12.459-1.042-14.087,1.409c6.142,1.205,15.897,2.323,22.539,0.704C182.471,29.846,177.678,31.315,174.323,31.254z
		 M103.889,32.663c1.736-0.093,3.394-0.107,4.226,0.704C108.457,31.048,104.054,30.409,103.889,32.663z M120.793,31.254
		c-3.526-0.09-8.034-0.492-10.565,1.409c4.61,1.437,11.691,0.628,16.904,0.704c3.396,0.049,7.919,2.636,9.157-1.409
		C132.079,31.869,126.446,31.398,120.793,31.254z M152.488,32.663c2.422-0.309,3.948,0.278,5.635,0.704
		C159.226,30.632,152.144,30.127,152.488,32.663z M184.185,31.958c-0.662,2.862,3.814,2.441,4.931,1.409
		C189.777,30.505,185.301,30.926,184.185,31.958z M138.402,33.367c1.331-0.312,4.245,0.958,3.521-1.409c-1.174,0-2.348,0-3.521,0
		C138.402,32.428,138.402,32.898,138.402,33.367z M153.193,36.889c0.994,2.782,11.689,0.727,15.495,0.704
		c2.81-0.017,6.984,2.664,8.452-0.704C166.618,37.305,160.078,35.797,153.193,36.889z"/>
	<path style="fill-rule:evenodd;clip-rule:evenodd;fill:#E6E6E6;" d="M151.08,29.846c-2.362,1.729,0.692,7.688,0,7.748
		c-5.727-0.289-8.764,0.733-13.383,0c0.061-2.991,6.278,0.174,6.339-2.817c0.108-1.752-1.107-2.18-1.409-3.521
		c-10.683-2.875-27.365,0.117-39.444-1.409c-1.758,1.927-0.286,3.003-1.409,4.93c5.905,2.688,17.199,1.143,26.061,1.409
		c2.338,0.07,6.157-1.232,7.043,1.409c-11.503,0.001-21.816,1.192-33.809,0.705c-1.717-1.805-1.469-5.574-1.409-9.157
		c18.235,0.409,38.517-0.624,52.826,0c5.797,0.422,18.448-0.86,21.835,0.705C166.576,29.846,158.828,29.846,151.08,29.846z"/>
	<path style="fill-rule:evenodd;clip-rule:evenodd;fill:#E6E6E6;" d="M194.045,28.437c-0.284,3.001,0.683,7.256-0.704,9.156
		c-2.794,1.491-8.661,0.476-9.86,0c0.977-1.606,4.902-0.263,7.043-0.704c0.855-2.103,1.406-4.506,0.705-6.339
		c-3.187-1.51-9.06-0.332-13.383-0.704C179.088,28.655,188.357,28.31,194.045,28.437z"/>
	<path style="fill-rule:evenodd;clip-rule:evenodd;fill:#E6E6E6;" d="M182.775,33.367c-6.642,1.619-16.397,0.501-22.539-0.704
		c1.628-2.451,9.649-1.49,14.087-1.409C177.678,31.315,182.471,29.846,182.775,33.367z"/>
	<path style="fill-rule:evenodd;clip-rule:evenodd;fill:#E6E6E6;" d="M108.115,33.367c-0.833-0.811-2.49-0.797-4.226-0.704
		C104.054,30.409,108.457,31.048,108.115,33.367z"/>
	<path style="fill-rule:evenodd;clip-rule:evenodd;fill:#E6E6E6;" d="M136.289,31.958c-1.237,4.045-5.761,1.458-9.157,1.409
		c-5.213-0.076-12.294,0.733-16.904-0.704c2.531-1.9,7.039-1.499,10.565-1.409C126.446,31.398,132.079,31.869,136.289,31.958z"/>
	<path style="fill-rule:evenodd;clip-rule:evenodd;fill:#E6E6E6;" d="M158.123,33.367c-1.687-0.426-3.213-1.013-5.635-0.704
		C152.144,30.127,159.226,30.632,158.123,33.367z"/>
	<path style="fill-rule:evenodd;clip-rule:evenodd;fill:#E6E6E6;" d="M189.115,33.367c-1.116,1.033-5.593,1.454-4.931-1.409
		C185.301,30.926,189.777,30.505,189.115,33.367z"/>
	<path style="fill-rule:evenodd;clip-rule:evenodd;fill:#E6E6E6;" d="M138.402,31.958c1.174,0,2.348,0,3.521,0
		c0.723,2.367-2.19,1.097-3.521,1.409C138.402,32.898,138.402,32.428,138.402,31.958z"/>
	<path style="fill-rule:evenodd;clip-rule:evenodd;fill:#E6E6E6;" d="M177.141,36.889c-1.468,3.368-5.643,0.688-8.452,0.704
		c-3.806,0.023-14.501,2.078-15.495-0.704C160.078,35.797,166.618,37.305,177.141,36.889z"/>
	<path style="fill-rule:evenodd;clip-rule:evenodd;" d="M119.384,43.228c4.479,1.391,6.293,5.446,7.748,9.861
		c1.188-2.784,1.247-6.418,0.705-9.157c2.152,0.509,2.567-0.72,4.226-0.705c0.483,2.362-1.182,2.575-2.817,2.817
		c1.631,4.67-0.756,6.063,0.704,10.565c-4.196-0.03-4.417-4.034-7.043-5.635c-1.681,1.274,1.011,4.108,1.409,5.635
		c-1.653,1.664-3.46-0.114-5.635,0C121.343,52.683,120.602,48.123,119.384,43.228z"/>
	<path style="fill-rule:evenodd;clip-rule:evenodd;" d="M210.95,43.933c0,1.644,0,3.287,0,4.93c2.168,0.525,1.354-1.933,3.521-1.409
		c0.605,0.568,0.419,1.93,1.408,2.113c-2.323,2.803-1.706,2.708,0,5.635c-1.484,1.402-3.905-0.233-4.226-2.113
		c-0.952,0.691-1.408,1.879-2.113,2.817c-2.115-3.795,0.904-9.356-1.408-11.974C209.532,42.759,209.028,43.996,210.95,43.933z"/>
	<path style="fill-rule:evenodd;clip-rule:evenodd;" d="M148.967,46.75c-1.472,0.298-1.865-0.483-2.817-0.705
		C146.276,44.002,149.497,44.348,148.967,46.75z"/>
	<path style="fill-rule:evenodd;clip-rule:evenodd;" d="M175.028,44.637c3.127,1.334,0.586,8.336,1.408,11.974
		C172.099,54.573,175.881,49.882,175.028,44.637z"/>
	<path style="fill-rule:evenodd;clip-rule:evenodd;" d="M188.41,44.637c1.474,0.875,2.647,2.049,3.522,3.522
		c-2.267,3.51,0.746,4.805-1.409,9.157c-3.624-3.157-7.296,1.366-9.86,0.704c0.381-3.309,3.069-4.998,2.817-8.452
		c-0.142-1.938-2.642-2.374-1.409-4.226C184.19,45.656,186.453,47.566,188.41,44.637z M184.889,49.567
		c1.755-0.358,4.249,0.023,4.227-2.113C187.315,47.768,185.877,48.442,184.889,49.567z M189.819,53.793
		c-0.022-2.56-2.071-3.094-4.931-2.817C184.12,54.328,187.18,53.85,189.819,53.793z"/>
	<path style="fill-rule:evenodd;clip-rule:evenodd;" d="M103.889,45.341c6.126,0.895,10.33,6.729,7.043,11.27
		c-2.385-0.432-5.439-0.195-4.931-3.521c2.215-0.807,1.711,1.105,2.817,1.409c1.648-0.181,0.406-3.095,0-3.522
		c-2.168-0.524-1.354,1.934-3.522,1.409C107.304,48.313,105.263,48.873,103.889,45.341z"/>
	<path style="fill-rule:evenodd;clip-rule:evenodd;" d="M141.923,46.75c1.292,4.502-1.645,5.324,1.409,8.452
		c-0.627,0.547-1.59,0.757-2.817,0.705c-0.864-2.188-0.864-5.241-2.113-7.044C140.219,48.802,139.143,45.848,141.923,46.75z"/>
	<path style="fill-rule:evenodd;clip-rule:evenodd;fill:#FFFFFF;" d="M189.115,47.454c0.022,2.136-2.472,1.755-4.227,2.113
		C185.877,48.442,187.315,47.768,189.115,47.454z"/>
	<path style="fill-rule:evenodd;clip-rule:evenodd;" d="M146.149,48.159c1.975,1.134,2.21,6.778,1.409,8.452
		C143.551,55.798,147.037,51.87,146.149,48.159z"/>
	<path style="fill-rule:evenodd;clip-rule:evenodd;" d="M206.724,48.863c-0.45,3.55,0.041,4.84-0.704,7.044
		c-1.484-0.576-1.933-3.714-0.704-4.931c-4.335-1.282-0.084,6.021-4.227,4.931c0-2.113,0-4.227,0-6.339
		C202.794,48.413,204.511,47.773,206.724,48.863z"/>
	<path style="fill-rule:evenodd;clip-rule:evenodd;fill:#FFFFFF;" d="M77.828,49.567c1.52-2.369,3.234,0.925,4.93,0.705
		C81.759,53.363,78.705,50.756,77.828,49.567z"/>
	<path style="fill-rule:evenodd;clip-rule:evenodd;" d="M98.253,49.567c0.589,3.509,0.362,5.263-2.113,7.043
		C91.143,56.468,92.841,45.607,98.253,49.567z M94.732,53.793c2.183,0.272,2.868-3.392,0.704-3.521
		C95.725,51.969,94.15,51.803,94.732,53.793z"/>
	<path style="fill-rule:evenodd;clip-rule:evenodd;" d="M100.367,48.863c1.646,0.232,2.91,0.847,4.226,1.409
		c-0.984,2.625-2.925,2.727-1.409,6.339C99.499,56.774,100.462,52.289,100.367,48.863z"/>
	<path style="fill-rule:evenodd;clip-rule:evenodd;" d="M156.715,50.976c-0.06,2.523-1.096,4.07-1.409,6.339
		C145.66,58.955,152.297,43.302,156.715,50.976z M152.488,55.202c2.751,0.774,2.823-4.196,0.705-4.226
		C152.382,51.809,152.396,53.466,152.488,55.202z"/>
	<path style="fill-rule:evenodd;clip-rule:evenodd;" d="M167.28,48.863c2.152-0.509,2.566,0.72,4.226,0.705
		c-1.466,2.15,1.258,5.349-0.704,7.748C165.785,58.596,165.946,51.665,167.28,48.863z"/>
	<path style="fill-rule:evenodd;clip-rule:evenodd;" d="M158.123,49.567c2.204,0.144,5.171-0.475,6.34,0.705
		c-1.631,3.161,0.742,5.355,0,7.043c-2.56-0.023-3.095-2.071-2.817-4.931c-2.771-0.423,0.179,4.875-2.817,4.226
		C158.967,53.89,158.853,51.42,158.123,49.567z"/>
	<path style="fill-rule:evenodd;clip-rule:evenodd;fill:#FFFFFF;" d="M95.436,50.272c2.164,0.129,1.479,3.793-0.704,3.521
		C94.15,51.803,95.725,51.969,95.436,50.272z"/>
	<path style="fill-rule:evenodd;clip-rule:evenodd;fill:#FFFFFF;" d="M153.193,50.976c2.118,0.03,2.046,5-0.705,4.226
		C152.396,53.466,152.382,51.809,153.193,50.976z"/>
	<path style="fill-rule:evenodd;clip-rule:evenodd;fill:#FFFFFF;" d="M184.889,50.976c2.859-0.277,4.908,0.258,4.931,2.817
		C187.18,53.85,184.12,54.328,184.889,50.976z"/>
	<path style="fill-rule:evenodd;clip-rule:evenodd;" d="M117.271,76.333c1.472-0.298,1.865,0.483,2.817,0.705
		c-0.389,2.194-0.575,4.59-1.409,6.339c-0.866-0.308-1.446-0.901-1.409-2.113c-1.462,0.181-0.192,3.095-1.409,3.522
		c-3.6-0.626-2.395-6.058-5.635-7.044C111.694,74.847,117.278,79.956,117.271,76.333z"/>
	<path style="fill-rule:evenodd;clip-rule:evenodd;" d="M148.263,76.333c0.704,0,1.408,0,2.113,0
		c1.434,2.698,0.98,8.728-2.113,9.157C142.259,82.968,151.011,79.852,148.263,76.333z"/>
	<path style="fill-rule:evenodd;clip-rule:evenodd;" d="M136.289,77.037c-3.042,4.517,4.946,1.397,4.931,4.93
		c0.683-1.195,1.947-1.81,4.226-1.408c0.569,2.683-2.064,2.162-2.113,4.226c-2.577-2.181-7.771,0.624-7.043-3.522
		c-3.957,0.445,1.474,3.23-0.705,4.226c-2.91-0.611-2.929-4.114-2.817-7.748C133.584,77.15,134.655,76.812,136.289,77.037z"/>
	<path style="fill-rule:evenodd;clip-rule:evenodd;" d="M129.245,77.741c0.704,0,1.409,0,2.113,0
		c0.482,2.584,1.165,5.899-2.113,6.339c0.312-4.275-2.634-0.706-4.226-0.704c0.288-1.697-1.287-1.531-0.705-3.522
		C127.417,79.051,130.138,82.246,129.245,77.741z"/>
	<path style="fill-rule:evenodd;clip-rule:evenodd;" d="M167.28,78.446c0.523,2.871-2.271,2.425-1.409,5.635
		c2.32-0.027,1.216-3.48,4.227-2.817c1.005,0.94,1.005,3.991,0,4.931c-4.188-1.65-4.453,0.429-9.157-0.705
		C157.428,80.828,161.262,75.696,167.28,78.446z M163.758,83.376c-0.389-1.254-0.361-2.925-1.408-3.522
		C161.274,80.864,161.664,83.526,163.758,83.376z"/>
	<path style="fill-rule:evenodd;clip-rule:evenodd;" d="M122.906,79.854c0.811,0.833,0.797,2.49,0.705,4.226
		c-1.752,0.109-2.181-1.106-3.522-1.409C120.331,81.036,120.544,79.371,122.906,79.854z"/>
	<path style="fill-rule:evenodd;clip-rule:evenodd;fill:#FFFFFF;" d="M162.35,79.854c1.047,0.597,1.02,2.268,1.408,3.522
		C161.664,83.526,161.274,80.864,162.35,79.854z"/>
	<path style="fill-rule:evenodd;clip-rule:evenodd;" d="M172.915,81.263c2.296-0.184,3.39,0.836,3.521,2.817
		c0.598-1.515,2.594-1.633,4.931-1.409c-0.178,4.211,3.188,0.527,2.817,4.931c-2.152-0.509-2.567,0.72-4.227,0.704
		c-0.815-1.042-0.815-1.775,0-2.817c-1.894-0.485-1.361,1.456-2.112,2.113c-1.301-2.316-4.062-0.031-6.34-2.113
		C172.068,84.173,172.683,82.91,172.915,81.263z"/>
	<path style="fill-rule:evenodd;clip-rule:evenodd;" d="M151.08,84.081c2.316-0.167,3.166,3.88,0,3.522
		C150.176,86.677,150.176,85.006,151.08,84.081z"/>
	<path style="fill-rule:evenodd;clip-rule:evenodd;fill:#3D6DAC;" d="M110.932,96.759c-1.865,1.59-4.006-2.537-6.339-2.817
		C106.381,90.511,109.677,95.241,110.932,96.759z"/>
	<path style="fill-rule:evenodd;clip-rule:evenodd;" d="M231.376,110.846c-0.009,1.399-1.922,0.896-1.408,2.817
		c-2.422-0.309-3.948,0.278-5.636,0.704c-0.533-3.729,1.844-0.664,2.818-2.113C228.698,111.743,229.49,108.949,231.376,110.846z"/>
	<path style="fill-rule:evenodd;clip-rule:evenodd;" d="M158.123,110.846c2.205-0.327,3.145,0.612,2.817,2.817
		C158.736,113.99,157.797,113.051,158.123,110.846z"/>
	<path style="fill-rule:evenodd;clip-rule:evenodd;" d="M167.28,113.664c-2.1-0.014-4.292,0.065-4.227-2.113
		C165.184,110.544,167.119,110.965,167.28,113.664z"/>
	<path style="fill-rule:evenodd;clip-rule:evenodd;" d="M199.681,113.664c-1.401,1.412-3.354-0.222-4.931-0.705
		C195.439,109.919,199.24,110.956,199.681,113.664z"/>
	<path style="fill-rule:evenodd;clip-rule:evenodd;" d="M114.454,111.55c0.47,0,0.939,0,1.409,0
		c0.329,1.503-1.006,1.342-2.113,1.409C113.883,112.389,114.456,112.257,114.454,111.55z"/>
	<path style="fill-rule:evenodd;clip-rule:evenodd;" d="M153.897,111.55c1.536-0.128,2.241,0.577,2.113,2.113
		c-0.705,0-1.409,0-2.113,0C153.897,112.959,153.897,112.255,153.897,111.55z"/>
	<path style="fill-rule:evenodd;clip-rule:evenodd;" d="M205.315,112.959c-0.166,2.254-4.569,1.614-4.227-0.705
		C202.57,110.708,204.221,112.109,205.315,112.959z"/>
	<path style="fill-rule:evenodd;clip-rule:evenodd;" d="M219.402,111.55c1.896,0.048,3.385,1.61,2.113,2.817
		C219.659,114.58,219.203,113.392,219.402,111.55z"/>
	<path style="fill-rule:evenodd;clip-rule:evenodd;fill:#3D6DAC;" d="M121.497,112.959c0.861-2.132,2.688,0.498,3.522,0.705
		C124.378,115.576,122.551,112.945,121.497,112.959z"/>
	<path style="fill-rule:evenodd;clip-rule:evenodd;" d="M141.219,112.254c2.205-0.327,3.144,0.613,2.817,2.818
		C141.832,115.399,140.892,114.459,141.219,112.254z"/>
	<path style="fill-rule:evenodd;clip-rule:evenodd;" d="M146.149,112.254c0.704,0,1.409,0,2.113,0
		c0.694,1.653,1.235,3.46,1.408,5.635c-1.263,0.089-1.485-0.862-2.817-0.705c-0.198-1.138,0.666-1.212,0.705-2.113
		C147.256,113.966,145.343,114.47,146.149,112.254z"/>
	<path style="fill-rule:evenodd;clip-rule:evenodd;" d="M169.394,112.254c1.023,0.386,3.64-0.823,3.521,0.705
		C173.372,115.709,168.76,114.076,169.394,112.254z"/>
	<path style="fill-rule:evenodd;clip-rule:evenodd;" d="M175.028,112.254c1.796,0.082,3.624,0.133,3.521,2.113
		C176.78,114.975,174.776,115.29,175.028,112.254z"/>
	<path style="fill-rule:evenodd;clip-rule:evenodd;" d="M188.41,112.959c-1.06,1.849-5.86,2.607-7.747,1.409
		C182.006,111.421,185.623,112.212,188.41,112.959z"/>
	<path style="fill-rule:evenodd;clip-rule:evenodd;" d="M193.341,114.368c-1.633,0.225-2.704-0.113-3.521-0.704
		C189.881,111.568,194.02,111.779,193.341,114.368z"/>
	<path style="fill-rule:evenodd;clip-rule:evenodd;" d="M209.541,112.254c1.84-0.196,3.525-0.237,2.817,2.113
		C210.517,114.566,209.329,114.11,209.541,112.254z"/>
	<path style="fill-rule:evenodd;clip-rule:evenodd;" d="M213.768,112.254c1.86,0.018,4.413-0.657,3.521,2.113
		C216.062,113.717,213.509,114.392,213.768,112.254z"/>
	<path style="fill-rule:evenodd;clip-rule:evenodd;" d="M167.984,117.185c-2.583,0-5.165,0-7.748,0
		C160.744,115.172,168.188,113.486,167.984,117.185z"/>
	<path style="fill-rule:evenodd;clip-rule:evenodd;" d="M196.158,117.89c-5.299-1.513-10.363,1.879-12.678-2.113
		C188.578,117.399,192.637,113,196.158,117.89z"/>
	<path style="fill-rule:evenodd;clip-rule:evenodd;" d="M211.654,117.185c-1.6-0.513-5.495,1.269-4.931-1.409
		C207.975,114.608,211.885,114.754,211.654,117.185z"/>
	<path style="fill-rule:evenodd;clip-rule:evenodd;" d="M138.402,115.776c0.469,0,0.939,0,1.409,0c0,0.47,0,0.939,0,1.409
		c-0.47,0-0.939,0-1.409,0C138.402,116.715,138.402,116.246,138.402,115.776z"/>
	<path style="fill-rule:evenodd;clip-rule:evenodd;" d="M141.923,115.776c1.115,0.059,2.687-0.339,2.817,0.705
		C145.51,118.954,140.42,118.367,141.923,115.776z"/>
	<path style="fill-rule:evenodd;clip-rule:evenodd;" d="M172.211,115.776c0.329,2.193-1.771,2.518-2.817,1.409
		C169.562,115.946,170.605,115.58,172.211,115.776z"/>
	<path style="fill-rule:evenodd;clip-rule:evenodd;" d="M174.323,115.776c1.634-0.225,2.704,0.113,3.522,0.705
		C178.051,118.309,173.082,118.928,174.323,115.776z"/>
	<path style="fill-rule:evenodd;clip-rule:evenodd;" d="M213.062,115.776c1.843-0.199,3.03,0.257,2.817,2.113
		C214.04,118.086,212.355,118.127,213.062,115.776z"/>
	<path style="fill-rule:evenodd;clip-rule:evenodd;" d="M220.811,117.89c-0.938,0-1.878,0-2.817,0
		C217.438,115.177,221.365,115.177,220.811,117.89z"/>
	<path style="fill-rule:evenodd;clip-rule:evenodd;" d="M221.516,115.776c2.154-0.511,2.071,1.215,4.226,0.705
		C225.18,118.068,221.019,118.804,221.516,115.776z"/>
	<path style="fill-rule:evenodd;clip-rule:evenodd;" d="M227.854,115.776c1.472-0.298,1.865,0.483,2.817,0.705
		C230.896,117.724,226.726,117.738,227.854,115.776z"/>
	<path style="fill-rule:evenodd;clip-rule:evenodd;" d="M202.498,117.185c-0.225-1.243,3.945-1.257,2.817,0.705
		C203.843,118.188,203.45,117.407,202.498,117.185z"/>
	<path style="fill-rule:evenodd;clip-rule:evenodd;" d="M150.376,129.863c-0.219,0.956-1.764,0.584-2.817,0.705
		C147.755,128.935,149.439,128.949,150.376,129.863z"/>
	<path style="fill-rule:evenodd;clip-rule:evenodd;fill:#FFFFFF;" d="M138.402,130.568c0.296-1.568,3.737-0.551,4.226,0
		C141.979,132.487,140.426,129.584,138.402,130.568z"/>
	<path style="fill-rule:evenodd;clip-rule:evenodd;" d="M153.897,129.863c0.704,0,1.408,0,2.113,0
		c-1.74,2.903,1.528,1.324,1.408,4.226c-1.408,0-2.817,0-4.226,0C153.429,131.595,155.131,132.358,153.897,129.863z"/>
	<path style="fill-rule:evenodd;clip-rule:evenodd;" d="M159.532,129.863c0.866,0.308,1.446,0.901,1.408,2.113
		c-1.137,0.198-1.212-0.666-2.112-0.705C158.962,130.702,159.534,130.57,159.532,129.863z"/>
	<path style="fill-rule:evenodd;clip-rule:evenodd;" d="M164.463,129.863c1.842-0.198,3.029,0.257,2.817,2.113
		C166.306,133.016,163.93,132.342,164.463,129.863z"/>
	<path style="fill-rule:evenodd;clip-rule:evenodd;" d="M192.637,131.272c-0.384,2.36-6.319-0.439-2.817,2.113
		c0.13,0.599-0.274,0.665-0.704,0.704c-0.6-0.129-0.665,0.275-0.705,0.705c-0.635-3.662-6.146-0.716-7.747-4.226
		C185.944,131.34,187.399,129.19,192.637,131.272z"/>
	<path style="fill-rule:evenodd;clip-rule:evenodd;" d="M196.158,129.863c2.018-0.139,3.845-0.087,3.522,2.113
		C197.663,132.115,195.836,132.064,196.158,129.863z"/>
	<path style="fill-rule:evenodd;clip-rule:evenodd;" d="M229.968,131.977c-3.287,0-6.574,0-9.861,0
		C221.858,130.44,229.832,128.769,229.968,131.977z"/>
	<path style="fill-rule:evenodd;clip-rule:evenodd;" d="M167.984,130.568c1.138-0.199,1.213,0.666,2.113,0.704
		C170.377,132.639,166.89,132.301,167.984,130.568z"/>
	<path style="fill-rule:evenodd;clip-rule:evenodd;" d="M176.437,130.568c1.634-0.225,2.704,0.113,3.521,0.704
		C179.266,132.873,176.432,133.018,176.437,130.568z"/>
	<path style="fill-rule:evenodd;clip-rule:evenodd;" d="M206.02,130.568c2.017-0.139,3.844-0.088,3.521,2.113
		c-4.893-0.987-1.529,1.902-4.931,2.113C204.273,132.578,205.614,132.041,206.02,130.568z"/>
	<path style="fill-rule:evenodd;clip-rule:evenodd;" d="M213.062,130.568c0.705,0,1.409,0,2.113,0
		c0.516,2.534,0.702,1.952,1.409,4.93c-2.935,0.117-5.879,0.244-7.044-1.409C211.26,132.962,215.084,134.686,213.062,130.568z"/>
	<path style="fill-rule:evenodd;clip-rule:evenodd;" d="M176.437,134.794c-1.452-0.426-4.894,1.137-4.226-1.409
		C173.938,132.82,176.272,132.175,176.437,134.794z"/>
	<path style="fill-rule:evenodd;clip-rule:evenodd;" d="M194.045,132.681c1.843-0.198,3.03,0.257,2.818,2.113
		C195.022,134.99,193.338,135.032,194.045,132.681z"/>
	<path style="fill-rule:evenodd;clip-rule:evenodd;" d="M197.567,132.681c1.633-0.225,2.704,0.113,3.521,0.705
		C201.027,135.481,196.889,135.27,197.567,132.681z"/>
	<path style="fill-rule:evenodd;clip-rule:evenodd;" d="M158.123,133.385c1.409,0,2.817,0,4.227,0
		c0.667,2.545-2.774,0.982-4.227,1.409C158.123,134.324,158.123,133.855,158.123,133.385z"/>
	<path style="fill-rule:evenodd;clip-rule:evenodd;" d="M170.098,133.385c-0.308,0.866-0.901,1.446-2.113,1.409
		C167.655,133.291,168.99,133.452,170.098,133.385z"/>
	<path style="fill-rule:evenodd;clip-rule:evenodd;" d="M177.846,134.089c-0.123-1.148,4.607-1.422,3.521,0.705
		C179.733,135.019,178.663,134.681,177.846,134.089z"/>
	<path style="fill-rule:evenodd;clip-rule:evenodd;" d="M183.48,133.385c0.469,0,0.938,0,1.408,0c0,0.47,0,0.939,0,1.409
		c-0.47,0-0.939,0-1.408,0C183.48,134.324,183.48,133.855,183.48,133.385z"/>
	<path style="fill-rule:evenodd;clip-rule:evenodd;" d="M231.376,134.089c-0.286,2.497-3.08,1.392-1.408,4.227
		c-3.546-0.766-9.752,3.165-10.565-1.409c3.592,0.769,5.605,0.308,8.452,0c-0.925-2.832-5.508-2.005-9.157-2.113
		C221.092,131.498,228.903,134.709,231.376,134.089z"/>
	<path style="fill-rule:evenodd;clip-rule:evenodd;fill:#FFFFFF;" d="M265.89,134.089c1.015,0.16,0.245,2.103,1.408,2.113
		c-0.685,15.782-0.405,22.656,0,36.626c-3.228-1.673-1.429-6.081-1.408-9.156C265.963,152.282,264.824,144.75,265.89,134.089z"/>
	<path style="fill-rule:evenodd;clip-rule:evenodd;" d="M153.193,135.498c1.174,0,2.348,0,3.521,0
		C157.325,138.413,153.197,137.644,153.193,135.498z"/>
	<path style="fill-rule:evenodd;clip-rule:evenodd;" d="M167.28,137.611c-1.467,1.42-6.804,0.734-7.044-1.409
		C161.886,135.068,165.836,136.338,167.28,137.611z"/>
	<path style="fill-rule:evenodd;clip-rule:evenodd;" d="M170.802,136.203c1.347,0.296,3.032,0.255,2.817,2.113
		C171.779,138.512,170.095,138.554,170.802,136.203z"/>
	<path style="fill-rule:evenodd;clip-rule:evenodd;" d="M178.55,136.907c-0.196,1.633-1.882,1.619-2.817,0.705
		C175.929,135.979,177.613,135.992,178.55,136.907z"/>
	<path style="fill-rule:evenodd;clip-rule:evenodd;" d="M180.663,136.203c2.152-0.509,2.566,0.72,4.226,0.704
		C184.858,139.026,179.889,138.953,180.663,136.203z"/>
	<path style="fill-rule:evenodd;clip-rule:evenodd;" d="M189.819,138.316c-1.473,0.298-1.865-0.483-2.817-0.705
		C187.129,135.568,190.35,135.914,189.819,138.316z"/>
	<path style="fill-rule:evenodd;clip-rule:evenodd;" d="M191.933,136.203c2.205-0.327,3.144,0.612,2.817,2.817
		C192.545,139.347,191.605,138.408,191.933,136.203z"/>
	<path style="fill-rule:evenodd;clip-rule:evenodd;" d="M203.202,137.611c-0.304,1.575-3.472,0.285-4.931,0.705
		C199.013,135.658,201.458,136.25,203.202,137.611z"/>
	<path style="fill-rule:evenodd;clip-rule:evenodd;" d="M205.315,136.203c1.842-0.199,3.029,0.257,2.817,2.113
		C206.29,138.514,205.103,138.059,205.315,136.203z"/>
	<path style="fill-rule:evenodd;clip-rule:evenodd;" d="M210.95,136.203c0.704,0,1.408,0,2.112,0c0,0.704,0,1.409,0,2.113
		C211.526,138.443,210.822,137.739,210.95,136.203z"/>
	<path style="fill-rule:evenodd;clip-rule:evenodd;" d="M215.88,136.203c1.537-0.128,2.241,0.577,2.113,2.113
		C216.457,138.443,215.753,137.739,215.88,136.203z"/>
	<path style="fill-rule:evenodd;clip-rule:evenodd;" d="M163.758,139.724c-0.011,1.076-5.219,1.544-4.226-0.704
		C161.363,137.124,161.656,139.881,163.758,139.724z"/>
	<path style="fill-rule:evenodd;clip-rule:evenodd;" d="M166.576,139.02c1.796,0.082,3.623,0.133,3.521,2.113
		C168.237,141.115,165.684,141.79,166.576,139.02z"/>
	<path style="fill-rule:evenodd;clip-rule:evenodd;" d="M172.915,139.02c1.797,0.082,3.624,0.133,3.521,2.113
		C174.576,141.115,172.023,141.79,172.915,139.02z"/>
	<path style="fill-rule:evenodd;clip-rule:evenodd;" d="M181.367,140.429c-0.196,1.633-1.882,1.619-2.817,0.705
		C178.746,139.5,180.431,139.514,181.367,140.429z"/>
	<path style="fill-rule:evenodd;clip-rule:evenodd;" d="M184.185,139.724c2.348,0,4.695,0,7.044,0
		C191.221,142.477,184.083,142.984,184.185,139.724z"/>
	<path style="fill-rule:evenodd;clip-rule:evenodd;" d="M163.054,152.403c1.174,0,2.348,0,3.522,0
		c0.723,2.367-2.191,1.096-3.522,1.409C163.054,153.342,163.054,152.872,163.054,152.403z"/>
	<path style="fill-rule:evenodd;clip-rule:evenodd;" d="M170.098,153.107c-0.123-1.148,4.607-1.422,3.521,0.705
		C171.986,154.036,170.915,153.698,170.098,153.107z"/>
	<path style="fill-rule:evenodd;clip-rule:evenodd;" d="M177.846,152.403c0.938,0,1.878,0,2.817,0
		c0.71,2.118-1.569,1.248-2.817,1.409C177.846,153.342,177.846,152.872,177.846,152.403z"/>
	<path style="fill-rule:evenodd;clip-rule:evenodd;" d="M183.48,152.403c0.938,0,1.878,0,2.817,0
		c0.71,2.118-1.569,1.248-2.817,1.409C183.48,153.342,183.48,152.872,183.48,152.403z"/>
	<path style="fill-rule:evenodd;clip-rule:evenodd;" d="M188.41,152.403c1.138-0.199,1.213,0.666,2.113,0.704
		C190.803,154.474,187.315,154.136,188.41,152.403z"/>
	<path style="fill-rule:evenodd;clip-rule:evenodd;" d="M194.045,153.107c0.012-1.075,5.22-1.544,4.227,0.705
		C196.535,153.904,194.878,153.918,194.045,153.107z"/>
	<path style="fill-rule:evenodd;clip-rule:evenodd;" d="M215.176,153.812c-2.348,0-4.695,0-7.043,0
		c-0.71,2.119,1.569,1.248,2.817,1.409c-1.726,1.092-4.585,1.05-7.044,1.409c-0.34-2.219,3.229-0.527,3.521-2.113
		c-0.977-1.606-4.902-0.262-7.043-0.704C201.142,151.573,213.695,151.462,215.176,153.812z"/>
	<path style="fill-rule:evenodd;clip-rule:evenodd;" d="M215.88,153.107c0.012-1.075,5.22-1.544,4.227,0.705
		C218.37,153.904,216.713,153.918,215.88,153.107z"/>
	<path style="fill-rule:evenodd;clip-rule:evenodd;" d="M222.22,153.107c-0.119-1.527,2.498-0.319,3.521-0.704
		C225.67,154.195,223.116,154.067,222.22,153.107z"/>
	<path style="fill-rule:evenodd;clip-rule:evenodd;" d="M226.445,152.403c1.736-0.093,3.394-0.107,4.227,0.704
		C230.66,154.183,225.452,154.651,226.445,152.403z"/>
	<path style="fill-rule:evenodd;clip-rule:evenodd;" d="M225.037,155.924c-2.468,1.268-9.47,1.037-11.975,0
		C215.385,153.655,221.456,155.316,225.037,155.924z"/>
	<path style="fill-rule:evenodd;clip-rule:evenodd;" d="M168.688,155.22c1.409,0,2.817,0,4.227,0
		c0.667,2.545-2.774,0.982-4.227,1.409C168.688,156.159,168.688,155.689,168.688,155.22z"/>
	<path style="fill-rule:evenodd;clip-rule:evenodd;" d="M175.028,155.22c1.633-0.225,2.704,0.113,3.521,0.704
		C178.673,157.073,173.941,157.346,175.028,155.22z"/>
	<path style="fill-rule:evenodd;clip-rule:evenodd;" d="M183.48,155.22c0.469,0,0.938,0,1.408,0c0,0.469,0,0.939,0,1.409
		c-0.47,0-0.939,0-1.408,0C183.48,156.159,183.48,155.689,183.48,155.22z"/>
	<path style="fill-rule:evenodd;clip-rule:evenodd;" d="M191.229,155.22c1.633-0.225,2.704,0.113,3.521,0.704
		C194.873,157.073,190.142,157.346,191.229,155.22z"/>
	<path style="fill-rule:evenodd;clip-rule:evenodd;" d="M198.271,155.924c-0.119-1.527,2.498-0.319,3.521-0.704
		C201.912,156.748,199.295,155.539,198.271,155.924z"/>
	<path style="fill-rule:evenodd;clip-rule:evenodd;" d="M227.15,155.22c1.736-0.093,3.394-0.107,4.226,0.704
		C231.364,157,226.156,157.469,227.15,155.22z"/>
	<path style="fill-rule:evenodd;clip-rule:evenodd;" d="M165.871,157.333c1.409,0,2.817,0,4.227,0
		c0.667,2.545-2.774,0.982-4.227,1.409C165.871,158.272,165.871,157.803,165.871,157.333z"/>
	<path style="fill-rule:evenodd;clip-rule:evenodd;" d="M191.933,158.038c-2.725,2.75-12.304,1.354-16.2,0.704
		C179.865,156.428,186.663,158.432,191.933,158.038z"/>
	<path style="fill-rule:evenodd;clip-rule:evenodd;" d="M196.158,158.038c2.422-0.309,3.948,0.278,5.635,0.704
		C201.449,159.715,195.443,160.452,196.158,158.038z"/>
	<path style="fill-rule:evenodd;clip-rule:evenodd;" d="M206.724,158.038c1.697-0.289,1.531,1.286,3.521,0.704
		C209.621,160.274,206.312,160.894,206.724,158.038z"/>
	<path style="fill-rule:evenodd;clip-rule:evenodd;" d="M221.516,158.038c3.834,1.254,7.289-1.4,8.452,2.113
		C225.698,159.378,222.165,161.614,221.516,158.038z"/>
	<path style="fill-rule:evenodd;clip-rule:evenodd;" d="M213.062,159.446c0.012-1.076,5.22-1.544,4.227,0.704
		C215.135,160.662,215.217,158.935,213.062,159.446z"/>
	<path style="fill-rule:evenodd;clip-rule:evenodd;" d="M177.141,162.968c-4.45,0.732-4.352-1.999-7.747-0.704
		C169.848,159.432,177.014,160.899,177.141,162.968z"/>
	<path style="fill-rule:evenodd;clip-rule:evenodd;" d="M203.202,162.968c-1.51,1.521-3.936,0.361-4.931-0.704
		C198.305,160.138,204.024,160.08,203.202,162.968z"/>
	<path style="fill-rule:evenodd;clip-rule:evenodd;" d="M194.75,162.968c-5.055,0.83-7.646,1.037-11.975,0
		C185.073,160.823,191.177,161.544,194.75,162.968z"/>
	<path style="fill-rule:evenodd;clip-rule:evenodd;" d="M221.516,162.264c-0.525,1.588-3.951,0.275-5.636,0.704
		C215.937,160.824,220.485,161.317,221.516,162.264z"/>
	<path style="fill-rule:evenodd;clip-rule:evenodd;" d="M223.628,161.559c3.232,0.183,3.403,0.749,6.34,0
		C230.591,163.816,223.005,163.816,223.628,161.559z"/>
	<path style="fill-rule:evenodd;clip-rule:evenodd;" d="M179.958,165.081c1.473-0.298,1.865,0.483,2.817,0.704
		C182.068,167.248,179.661,167.716,179.958,165.081z"/>
	<path style="fill-rule:evenodd;clip-rule:evenodd;" d="M187.002,165.785C189.138,163.181,189.375,167.924,187.002,165.785
		L187.002,165.785z"/>
	<path style="fill-rule:evenodd;clip-rule:evenodd;" d="M192.637,165.081c1.644,0,3.287,0,4.931,0
		C197.689,167.943,192.771,167.528,192.637,165.081z"/>
	<path style="fill-rule:evenodd;clip-rule:evenodd;" d="M199.681,165.081c2.144,0.203,4.808-0.112,4.93,2.113
		C203.436,166.021,199.468,167.641,199.681,165.081z"/>
	<path style="fill-rule:evenodd;clip-rule:evenodd;" d="M215.88,167.194c-2.834-0.452-7.489,0.916-9.156-0.704
		C207.905,164.576,215.844,164.53,215.88,167.194z"/>
	<path style="fill-rule:evenodd;clip-rule:evenodd;" d="M227.854,165.785c-0.562,3.097-7.337,2.251-8.452,0
		C221.714,163.988,224.315,166.607,227.854,165.785z"/>
	<path style="fill-rule:evenodd;clip-rule:evenodd;" d="M229.968,165.081c1.842-0.199,3.029,0.257,2.817,2.113
		C230.944,167.391,229.26,167.432,229.968,165.081z"/>
	<path style="fill-rule:evenodd;clip-rule:evenodd;" d="M193.341,169.307c-2.412,2.898-8.939,0.845-9.86-0.704
		C185.352,167.797,190.615,168.719,193.341,169.307z"/>
	<path style="fill-rule:evenodd;clip-rule:evenodd;" d="M194.045,168.603c1.414-0.24,2.204,0.144,2.113,1.408
		c-0.704,0-1.408,0-2.113,0C194.045,169.542,194.045,169.072,194.045,168.603z"/>
	<path style="fill-rule:evenodd;clip-rule:evenodd;" d="M198.271,170.011c0.181-1.648,3.095-0.406,3.521,0
		C201.612,171.66,198.699,170.417,198.271,170.011z"/>
	<path style="fill-rule:evenodd;clip-rule:evenodd;" d="M206.724,169.307c-0.308,0.866-0.901,1.446-2.113,1.409
		C204.281,169.213,205.617,169.375,206.724,169.307z"/>
	<path style="fill-rule:evenodd;clip-rule:evenodd;fill:#FFFFFF;" d="M265.185,176.351c3.675-1.144,1.192,5.729,2.113,9.157
		C263.661,183.924,267.117,178.684,265.185,176.351z"/>
	<path style="fill-rule:evenodd;clip-rule:evenodd;" d="M200.385,184.803c-1.871-0.008-4.022,0.266-4.931-0.705
		C195.487,181.973,201.207,181.915,200.385,184.803z"/>
	<path style="fill-rule:evenodd;clip-rule:evenodd;" d="M220.811,183.394c0.12,1.998-2.382,1.375-1.408,4.227
		c-1.473,0.298-1.865-0.483-2.817-0.705c3.026-1.831-0.386-1.345-0.705-3.521C217.213,181.997,219.208,183.052,220.811,183.394z"/>
	<path style="fill-rule:evenodd;clip-rule:evenodd;" d="M223.628,182.69c1.843-0.199,3.03,0.257,2.817,2.113
		C225.127,186.186,223.053,185.21,223.628,182.69z"/>
	<path style="fill-rule:evenodd;clip-rule:evenodd;" d="M228.559,182.69c2.152-0.509,2.566,0.72,4.227,0.704
		C232.223,184.981,228.062,185.717,228.559,182.69z"/>
	<path style="fill-rule:evenodd;clip-rule:evenodd;" d="M203.906,183.394c1.634-0.225,2.704,0.113,3.521,0.705
		c-1.604,1.091-1.33,1.467-0.704,3.522c-1.174,0-2.348,0-3.521,0C203.438,185.126,205.14,185.888,203.906,183.394z"/>
	<path style="fill-rule:evenodd;clip-rule:evenodd;" d="M210.95,183.394c0.704,0,1.408,0,2.112,0c0.928,1.886,0.453,2.679,0,4.227
		c-1.408,0-2.817,0-4.226,0C208.566,185.237,211.955,186.512,210.95,183.394z"/>
	<path style="fill-rule:evenodd;clip-rule:evenodd;" d="M200.385,187.621c-2.029-0.084-4.611,0.385-5.635-0.705
		C194.817,184.793,201.215,184.614,200.385,187.621z"/>
	<path style="fill-rule:evenodd;clip-rule:evenodd;" d="M191.933,189.733c-0.123-1.148,4.607-1.422,3.521,0.705
		C193.82,190.663,192.75,190.325,191.933,189.733z"/>
	<path style="fill-rule:evenodd;clip-rule:evenodd;" d="M199.681,189.029c1.633-0.225,2.704,0.113,3.521,0.704
		C203.325,190.882,198.594,191.156,199.681,189.029z"/>
	<path style="fill-rule:evenodd;clip-rule:evenodd;" d="M206.724,189.733c-0.118-1.527,2.498-0.318,3.521-0.704
		c-1.02,2.663,1.936,1.352,1.409,3.521c-2.55-0.736-8.172,1.598-8.452-1.408c1.878,0,3.757,0,5.635,0
		C208.32,190.484,207.556,190.075,206.724,189.733z"/>
	<path style="fill-rule:evenodd;clip-rule:evenodd;" d="M215.88,189.029c-0.169,1.239-1.212,1.605-2.817,1.409
		C212.353,188.319,214.632,189.19,215.88,189.029z"/>
	<path style="fill-rule:evenodd;clip-rule:evenodd;" d="M217.289,194.664c-1.924,3.833-9.698,1.243-14.791,0.704
		c0.395-2.952,6.91-1.163,7.747,0C212.717,194.231,214.484,193.955,217.289,194.664z"/>
	<path style="fill-rule:evenodd;clip-rule:evenodd;" d="M229.263,196.073c-1.702,1.35-5.659,0.444-8.452,0.704
		C220.857,194.043,229.582,192.632,229.263,196.073z"/>
	<path style="fill-rule:evenodd;clip-rule:evenodd;fill:#FFFFFF;" d="M266.594,193.959c1.643,14.088,0.235,31.226,0.704,46.487
		C265.465,226.388,266.771,208.664,266.594,193.959z"/>
	<path style="fill-rule:evenodd;clip-rule:evenodd;fill:#FFFFFF;" d="M195.454,198.185c-0.088,1.556-2.988,0.3-4.226,0.705
		C191.315,197.334,194.216,198.59,195.454,198.185z"/>
	<path style="fill-rule:evenodd;clip-rule:evenodd;" d="M213.062,208.75c-0.691,1.138-1.879,1.621-2.817,0.705
		C210.442,207.823,212.127,207.836,213.062,208.75z"/>
	<path style="fill-rule:evenodd;clip-rule:evenodd;" d="M227.854,210.16c-4.88-0.671-9.695,1.384-11.975-0.704
		C217.986,207.995,226.694,206.846,227.854,210.16z"/>
	<path style="fill-rule:evenodd;clip-rule:evenodd;" d="M232.785,208.046c0.57,0.134,0.702,0.707,1.408,0.704
		c0,0.47,0,0.939,0,1.409c-1.736,0.093-3.394,0.106-4.226-0.704C229.464,207.542,233.289,209.959,232.785,208.046z"/>
	<path style="fill-rule:evenodd;clip-rule:evenodd;" d="M227.15,213.681c-2.793-0.26-6.75,0.646-8.453-0.704
		C220.067,211.913,226.458,210.527,227.15,213.681z"/>
	<path style="fill-rule:evenodd;clip-rule:evenodd;" d="M229.263,211.568c1.736-0.093,3.394-0.106,4.227,0.705
		C232.927,213.86,228.767,214.596,229.263,211.568z"/>
	<path style="fill-rule:evenodd;clip-rule:evenodd;" d="M213.768,212.273c0.938,0,1.878,0,2.817,0
		c0.71,2.118-1.569,1.248-2.817,1.408C213.768,213.211,213.768,212.742,213.768,212.273z"/>
	<path style="fill-rule:evenodd;clip-rule:evenodd;" d="M213.768,214.385C212.221,216.537,209.256,213.573,213.768,214.385
		L213.768,214.385z"/>
	<path style="fill-rule:evenodd;clip-rule:evenodd;" d="M217.993,214.385c0.47,0,0.939,0,1.409,0c0,0.47,0,0.939,0,1.409
		c-0.47,0-0.939,0-1.409,0C217.993,215.325,217.993,214.855,217.993,214.385z"/>
	<path style="fill-rule:evenodd;clip-rule:evenodd;" d="M227.15,214.385c1.842-0.198,3.029,0.258,2.817,2.113
		C228.125,216.697,226.938,216.242,227.15,214.385z"/>
	<path style="fill-rule:evenodd;clip-rule:evenodd;" d="M221.516,215.09c1.736-0.093,3.394-0.107,4.226,0.704
		C225.729,216.87,220.521,217.338,221.516,215.09z"/>
	<path style="fill-rule:evenodd;clip-rule:evenodd;" d="M231.376,215.09c1.023,0.385,3.641-0.823,3.521,0.704
		C235.423,218.477,230.336,217.317,231.376,215.09z"/>
	<path style="fill-rule:evenodd;clip-rule:evenodd;" d="M216.585,219.316c-0.939,0-1.879,0-2.817,0
		C213.28,216.536,216.733,217.01,216.585,219.316z"/>
	<path style="fill-rule:evenodd;clip-rule:evenodd;" d="M235.603,220.02c-2.443-0.139-5.415,0.249-5.635-2.112
		C231.035,217.192,235.214,217.875,235.603,220.02z"/>
	<path style="fill-rule:evenodd;clip-rule:evenodd;" d="M218.697,217.908c1.737-0.093,3.395-0.107,4.227,0.704
		C222.361,220.199,218.201,220.935,218.697,217.908z"/>
	<path style="fill-rule:evenodd;clip-rule:evenodd;" d="M224.332,219.316c0.219-0.956,1.764-0.584,2.818-0.704
		C226.953,220.245,225.269,220.231,224.332,219.316z"/>
	<path style="fill-rule:evenodd;clip-rule:evenodd;" d="M231.376,229.177c0.939,0,1.878,0,2.817,0c0,0.938,0,1.878,0,2.817
		C232.558,231.751,230.893,231.539,231.376,229.177z"/>
	<path style="fill-rule:evenodd;clip-rule:evenodd;" d="M227.854,229.881c1.413-0.239,2.204,0.144,2.113,1.409
		c-0.705,0-1.409,0-2.113,0C227.854,230.821,227.854,230.351,227.854,229.881z"/>
	<path style="fill-rule:evenodd;clip-rule:evenodd;fill:#FFFFFF;" d="M216.585,233.403c0.377-1.659,3.332-0.43,1.408,0.705
		C217.423,233.973,217.291,233.401,216.585,233.403z"/>
	<path style="fill-rule:evenodd;clip-rule:evenodd;" d="M227.854,232.699c2.588,0.229,6.235-0.601,7.748,0.704
		C235.078,235.703,227.56,235.599,227.854,232.699z"/>
	<path style="fill-rule:evenodd;clip-rule:evenodd;fill:#0071BC;" d="M136.993,234.108c0.218-0.956,1.763-0.585,2.817-0.705
		c-0.373,0.566-0.735,1.144-0.705,2.113C138.181,235.267,137.998,234.276,136.993,234.108z"/>
	<path style="fill-rule:evenodd;clip-rule:evenodd;" d="M232.785,236.925c-0.17,1.238-1.212,1.605-2.817,1.408
		C229.258,236.215,231.536,237.085,232.785,236.925z"/>
	<path style="fill-rule:evenodd;clip-rule:evenodd;" d="M224.332,240.447c-0.118-1.527,2.499-0.319,3.522-0.704
		C227.973,241.27,225.356,240.061,224.332,240.447z"/>
	<path style="fill-rule:evenodd;clip-rule:evenodd;fill:#FFFFFF;" d="M266.594,241.855c1.578,7.588,0.281,25.135,0.704,36.627
		C265.72,270.894,267.017,253.347,266.594,241.855z"/>
	<path style="fill-rule:evenodd;clip-rule:evenodd;" d="M233.489,253.125c1.115-1.744,4.928-0.287,6.339,0
		C239.043,254.54,234.38,253.933,233.489,253.125z"/>
	<path style="fill-rule:evenodd;clip-rule:evenodd;fill:#0071BC;" d="M210.245,256.647c0.511-1.575,4.017-0.341,3.522,1.408
		C212.131,259.756,211.882,256.956,210.245,256.647z"/>
	<path style="fill-rule:evenodd;clip-rule:evenodd;" d="M242.646,258.055c-2.204-0.144-5.171,0.476-6.339-0.704
		C237.055,255.464,242.064,255.822,242.646,258.055z"/>
	<path style="fill-rule:evenodd;clip-rule:evenodd;fill:#FFFFFF;" d="M265.89,282.003c1.138,0.691,1.62,1.879,0.704,2.817
		C265.638,284.603,266.01,283.057,265.89,282.003z"/>
	<path style="fill-rule:evenodd;clip-rule:evenodd;fill:#FFFFFF;" d="M265.89,288.342c1.392,6.869,0.723,18.959,0.704,26.062
		C263.835,305.727,266.678,298.828,265.89,288.342z"/>
	<path style="fill-rule:evenodd;clip-rule:evenodd;fill:#0071BC;" d="M275.75,5.193c-1.656,106.196,0.693,211.283-0.704,324.706
		c-3.619-0.608-7.997,2.474-9.861-0.704c-0.136-2.323,3.271,0.347,2.817-3.521c2.389-53.605,0.088-106.158,1.409-159.184
		c0.753-30.249-2.381-61.441-1.409-96.496c0.533-19.237-0.513-39.487,1.409-57.757c-58.093-1.288-105.762-0.897-159.888-2.113
		c-7.756-0.174-15.931-0.006-23.948,0c-11.117,0.008-22.903,1.686-32.4-1.409c-1.795-0.328-6.093,2.559-6.339-0.704
		c1.736,0.093,3.394,0.106,4.226-0.705c-5.394,1.336-12.19-7.236-6.339-2.817c3.413-1.197,13.249-2.033,20.426-2.113
		c9.05-0.101,19.146-0.291,28.878,0c28.694,0.858,55.373,1.241,84.522,1.409C209.337,3.961,241.819,3.658,275.75,5.193z"/>
	<path style="fill-rule:evenodd;clip-rule:evenodd;fill:#FFFFFF;" d="M264.48,12.941c3.764,2.07,2.113,9.399,2.113,14.792
		c0,35.176-1.402,71.415,0,105.653C263.148,100.742,266.795,47.426,264.48,12.941z"/>
	<path style="fill-rule:evenodd;clip-rule:evenodd;" d="M279.977,1.671c-3.015,30.229-1.762,60.596-2.113,91.566
		c-0.082,7.247,0.461,14.547,0.704,21.835c0.915,27.427-0.812,48.848-0.704,71.843c0.042,8.923,0.936,19.046,0.704,28.879
		c-0.232,9.883-0.562,19.717,1.409,27.47c-2.572,15.551-0.576,30.07-0.705,44.374c-0.133,14.815-2.136,28.294-0.704,44.374
		c-19.129,1.112-37.585,1.986-57.052,1.409c-11.329-0.337-23.501-1.393-35.923-0.705c-32.785,1.816-69.944,1.131-111.991-0.704
		c-22.477-0.98-44.959,1.093-64.801-2.113c0.59-38.746-0.136-85.189-0.704-129.601c-1.723-3.102-6.737-3.422-7.748-7.043
		c-1.699-6.089,3.273-15.819,4.931-23.244c0.752-3.371,1.264-7.119,2.113-10.565c0.95-3.854,2.481-7.468,2.817-10.565
		c0.924-8.51-0.29-18.786,0-28.878c0.818-28.497,0.446-59.999,0.705-85.227c0.051-4.943,1.405-9.649,1.409-14.087
		c0.005-6.716-1.649-13.569,0-19.018c1.596-2.596,6.529-1.387,10.565-1.409c50.943-0.274,94.114,0,146.505,0
		C207.445,0.263,245.125,2.788,279.977,1.671z M178.55,3.785C149.4,3.617,122.721,3.234,94.027,2.376
		c-9.733-0.291-19.829-0.101-28.878,0c-7.178,0.08-17.014,0.916-20.426,2.113c-5.851-4.418,0.945,4.153,6.339,2.817
		c-0.833,0.811-2.49,0.797-4.226,0.705c0.246,3.263,4.544,0.376,6.339,0.704c9.497,3.094,21.283,1.417,32.4,1.409
		c8.017-0.006,16.192-0.174,23.948,0c54.126,1.216,101.795,0.826,159.888,2.113c-1.922,18.27-0.876,38.52-1.409,57.757
		c-0.972,35.055,2.162,66.247,1.409,96.496c-1.321,53.025,0.979,105.578-1.409,159.184c0.454,3.868-2.953,1.198-2.817,3.521
		c1.864,3.178,6.242,0.096,9.861,0.704c1.397-113.423-0.952-218.51,0.704-324.706C241.819,3.658,209.337,3.961,178.55,3.785z
		 M40.497,36.889c1.169-5.731,3.305-11.207,3.522-16.2c0.209-4.81-1.172-13.019-4.226-15.496c-5.797-4.702-16.321-0.78-23.244-2.113
		c-0.821,0.119-0.765,1.114-0.704,2.113c-2.785,13.979-0.36,29.295-1.409,45.079c-1.991,29.951-1.097,62.223-1.408,92.27
		C20.71,111.046,33.586,70.759,40.497,36.889z M49.653,15.758c-1.491-1.796-2.776-3.797-4.226-5.635
		C44.926,13.912,47.074,15.051,49.653,15.758z M132.062,13.646c2.603-0.45,7.017,0.912,8.452-0.705c-3.287,0-6.574,0-9.861,0
		c-25.053-0.493-51.387-2.533-75.366,0C87.69,12.828,99.896,13.776,132.062,13.646z M54.584,12.237
		c-1.238,0.405-4.139-0.852-4.226,0.704C51.596,12.536,54.496,13.792,54.584,12.237z M163.758,12.941
		C157.738,12.078,160.759,15.098,163.758,12.941L163.758,12.941z M266.594,133.385c-1.402-34.238,0-70.477,0-105.653
		c0-5.392,1.65-12.721-2.113-14.792C266.795,47.426,263.148,100.742,266.594,133.385z M58.105,14.35
		c-1.912,0.437-5.59-0.894-6.339,0.705C53.678,14.618,57.356,15.948,58.105,14.35z M181.367,15.054c-5.87,0-11.739,0-17.609,0
		c-1.408,0-2.817,0-4.226,0c-1.409,0-2.817,0-4.227,0c-1.408,0-2.817,0-4.226,0c0.088,1.556,2.987,0.299,4.226,0.704
		c34.381-0.219,76.071,0.332,102.132,0C231.499,14.112,205.844,15.356,181.367,15.054z M138.402,15.054
		c-1.024,0.385-3.641-0.823-3.522,0.704C135.903,15.374,138.521,16.582,138.402,15.054z M263.072,15.758
		c-2.287,0.409-3.277-0.479-4.931-0.704C257.275,17.396,262.902,16.777,263.072,15.758z M58.81,29.141
		c0.541-3.521-5.047-6.572-8.452-8.452c-1.909,0.205-5.217-0.991-4.226,2.113c2.605,0.337,11.623,3.137,11.27,6.339
		c-4.876-1.657-6.48-5.506-11.974-4.93c-2.481,10.271-3.656,21.325-6.339,31.696c-0.346,1.337-1.746,2.206-2.113,3.521
		c-1.328,4.768-1.302,10.228-2.817,14.792c-5.083,15.304-9.055,33.047-13.383,49.305c-3.133,11.771-7.455,24.695-10.565,35.217
		c-1.561,5.283-1.475,11.309-2.817,16.905c-1.554,6.476-5.177,12.775-3.521,18.313c1.715,1.338,3.482,2.622,7.043,2.113
		c2.331,4.288,14.692,5.11,21.13,7.043c5.968,1.792,11.728,3.533,16.905,4.931c12.97,3.501,27.251,4.835,38.035,10.565
		c20.292,2.904,41.476,10.062,59.166,15.496c30.934,9.5,63.359,15.469,88.044,32.399c3.402-2.175,4.81,2.345,7.044,0.705
		c-4.823-4.335-10.398-7.915-16.2-11.271c3.251-1.199,8.543,4.941,11.27,4.227c-5.642-6.567-15.949-8.468-21.835-14.791
		c2.834,1.243,6.359,1.93,9.156,3.521c2.677,1.522,4.531,4.881,7.044,4.226c-1.421-0.927-2.384-2.312-2.817-4.226
		c-1.174,0-2.348,0-3.522,0c-2.684-5.533-10.78-5.654-14.791-9.861c6.24,0.342,11.4,5.495,14.791,6.34
		c-2.541-3.366-5.93-5.676-9.86-7.748c-3.272-1.726-7.62-2.376-8.452-4.931c4.604-0.129,7.858,4.802,11.27,3.521
		c-4.423-2.772-8.22-6.509-13.383-8.452c-1.666-0.627-4.944,0.394-5.635-2.113c4.497-1.197,9.548,3.122,13.383,4.931
		c-0.846-2.899-3.64-5.42-7.044-7.043c-3.502-1.67-10.402-0.908-9.86-4.931c4.936,1.169,8.595,3.614,12.678,5.635
		c-2.221-4.537-7.67-6.94-12.678-9.156c-2.314-1.024-7.098-0.305-7.044-4.227c5.509,1.77,9.588,4.969,14.792,7.044
		c-0.253-3.106-2.399-5.403-4.931-4.227c-3.457-5.465-12.324-5.52-16.2-10.565c7.174,1.049,12.718,7.468,17.608,8.452
		c-3.855-4.617-8.209-8.91-14.087-11.27c-2.766-1.109-8.311-0.004-9.156-4.226c6.074,1.204,9.957,4.599,15.496,6.339
		c-3.386-4.587-9.705-7.596-15.496-9.861c-1.67-0.652-5.606,0.944-4.931-2.817c5.961,1.323,12.15,6.155,16.904,6.34
		c-1.265,0.091-1.648-0.7-1.408-2.113c-3.198,0.617-3.597-2.873-5.635-4.227c-5.448-3.616-13.482-4.101-16.905-8.452
		c7.312,0.441,12.078,7.167,17.609,7.043c-4.287-3.937-9.472-8.272-15.496-10.565c-1.991-0.758-4.779,0.729-5.635-2.113
		c6.996-0.188,9.409,4.208,14.792,5.635c-3.638-8.498-14.281-8.91-22.54-14.087c7.756-0.706,11.894,5.942,16.905,5.635
		c-2.604-0.971-3.419-4.051-5.636-5.635c-4.412-3.153-10.396-3.578-15.495-6.339c5.883-1.547,11.068,3.407,15.495,5.635
		c-1.257-4.377-5.894-5.375-8.452-8.452c-3.097-0.66-6.993-0.52-7.747-3.522c3.103,0.184,4.145,2.43,7.747,2.113
		c-2.576-5.407-12.088-3.877-14.791-9.157c5.175-0.01,7.058,3.273,11.27,4.226c-1.725-7.667-14.03-4.752-17.608-10.565
		c4.233-1.284,9.636,5.757,14.087,4.226c-4.993-4.634-11.851-7.402-19.018-9.861c4.204-3.676,10.757,5.461,14.792,4.226
		c-3.134-2.516-5.508-5.414-9.157-7.748c-3.459-2.212-8.935-2.717-10.565-7.043c5.324,1.257,10.347,6.549,14.087,7.043
		c-0.822-1.057-2.035-1.722-2.113-3.522c-0.939,0-1.878,0-2.817,0c-0.894-2.149-2.546-4.339-4.226-5.635
		c-3.821-2.947-10.905-3.057-12.678-7.748c4.356,0.809,6.625,3.705,10.565,4.93c-2.572-6.349-10.489-7.354-14.791-11.974
		c3.729,0.027,4.971,2.542,7.748,3.522c-2.294-6.157-10.222-6.682-14.792-10.565c6.686-1.676,12.338,7.322,16.2,8.452
		c-5.969-4.831-9.406-12.193-19.018-13.382c0.521-2.399-2.595-1.161-2.817-2.817c1.142-2.312,4.424,1.89,4.227-1.409
		c-2.148-4.191-8.627-4.051-11.27-7.748c5.929-1.455,7.453,5.208,11.27,3.522c-3.329-3.48-8.639-4.979-11.974-8.453
		c-2.142,0.029-4.636,0.41-4.226-2.113c4.222-1.045,10.037,5.833,13.382,5.635c-0.885-0.289-1.439-0.908-1.409-2.113
		c-0.817-0.591-1.888-0.929-3.521-0.705c-1.438-5.376-11.131-6.234-11.974-9.861c4.653,0.289,7.859,5.743,11.27,4.93
		c-3.145-1.074-4.311-4.481-7.043-6.339c-4.052-2.755-10.12-2.565-12.678-7.043c3.327-0.081,8.224,5.128,9.157,2.817
		c-1.355-2.293-5.162-3.224-8.452-4.931c-2.449-1.271-8.475-2.521-4.931-5.635c1.102,3.139,6.837,5.353,9.157,4.931
		c-2.53-2.871-6.572-4.229-9.157-7.044c-2.779-0.743-6.778-0.266-7.043-3.521c4.535,0.396,7.068,2.793,10.565,4.226
		c-2.315-7.076-12.857-5.925-16.904-11.27c6.521,0.997,12.659,6.116,16.904,7.043c-0.671-2.449-3.675-2.718-5.635-4.226
		c-0.986-0.759-1.623-2.797-2.817-3.522c-3.687-2.237-9.296-1.746-11.974-5.635c5.949,0.86,9.625,3.993,14.087,6.339
		c-2.432-7.433-15.105-8.369-18.313-12.678c5.151,0.493,10.25,4.764,13.382,4.93C61.851,32.205,60.622,30.381,58.81,29.141z
		 M198.271,200.298c-2.129,0.219-5.478-0.782-5.635,1.409c1.836,1.685,8.04-0.997,7.748,2.817c-1.883,0.406-4.401-2.084-5.635,0
		c1.985,1.302,6.201,0.372,7.748,2.113c-1.644,0-3.287,0-4.931,0c0.597,6.668,8.206-1.788,10.565,2.817
		c-2.668,0.384-4.4,1.703-7.748,1.408c0.427,5.106,7.7-0.528,9.86,2.113c-2.204,1.006-4.151,3.047-7.043,1.408
		c-0.178,5.973,7.017,0.392,7.748,4.931c-1.238,0.405-4.139-0.852-4.227,0.704c1.125,1.458,4.298,0.867,5.635,2.113
		c0.225,1.868-3.945-0.659-2.817,2.113c1.319,1.028,4.668,0.027,5.635,1.408c0.225,1.868-3.945-0.658-2.817,2.113
		c4.278-0.521,6.829,0.685,9.157,2.113c0.837-1.467,5.151-0.512,4.93,1.409c-3.723-0.052-8.526-2.721-11.974-0.705
		c3.411,0.814,6.49,1.962,9.86,2.817c-1.624-0.216-0.782,2.035-2.112,2.113c-1.697,0.288-1.531-1.286-3.522-0.704
		c-0.157,1.332,0.794,1.554,0.705,2.817c2.072-0.081,4.855-3.073,7.043-0.704c-1.042,0.815-1.775,0.815-2.817,0
		c0.602,2.245-0.613,2.673-1.408,3.521c3.196,2.545,9.178-2.066,11.27,1.408c-1.969,1.554-6.309,0.735-8.452,2.113
		c0.643,2.983,6.738-1.568,7.043,2.817c-1.408,0-2.817,0-4.226,0c-0.696,6.13,9.431-1.564,9.86,4.227
		c-2.124-0.029-6.033-1.896-7.747,0c2.946,2.452,5.627,5.173,7.043,9.156c2.371,0.446,6.542-0.907,7.748,0.704
		c-0.673,1.909-5.829-0.664-5.635,2.113c2.169,0.363,6.569,0.825,4.931,2.817c1.992,0.121,4.832-0.605,4.93,1.409
		c-1.459,0.419-4.627-0.871-4.93,0.704c2.127,1.395,6.297,0.747,7.747,2.817c-2.494,1.19-4.008-0.72-5.635,0.704
		c0.862,2.895,7.567-0.054,7.748,3.521c-2.506,0.596-4.221-2.039-4.931,0.705c1.468,1.585,6.565-0.461,6.34,2.817
		c-1.697,0.288-1.531-1.287-3.522-0.705c-0.303,3.12,4.105,1.53,4.227,4.227c-1.106,0.067-2.442-0.095-2.113,1.408
		c1.46,0.42,4.627-0.87,4.931,0.705c-0.553,2.643-4.36-1.854-3.521,1.408c0.482,2.335,5.372,0.263,5.635,2.817
		c-1.174,0-2.348,0-3.521,0c-0.548,3.365,4.401,1.233,4.93,3.522c-1.408,0-2.817,0-4.226,0c-0.87,3.452,3.46,1.704,3.521,4.226
		c-2.408-0.297-1.353,3.917,1.409,4.227c-1.272,0.953-0.979,4.715,0.704,6.339c0.835-35.756,1.304-82.686,0-121.853
		c-0.874-26.243,0.312-52.468-0.704-79.592c-1.026-27.372,0.763-56.417,0-86.635c-33.45-1.188-64.635-0.035-102.132-0.704
		c-1.465,0.413-2.276,1.48-3.521,2.113c0-0.705,0-1.409,0-2.113c-32.243-0.604-62.866-1.571-92.974-1.409
		c-3.873,0.021-9.068-1.184-10.565,1.409c0.404,1.709,4.557-0.331,4.226,2.113c-1.106,0.067-2.442-0.095-2.113,1.408
		c2.32,0.027,4.984-0.288,4.93,2.113c-1.347,0.328-3.032-2.171-2.817,0.705c0.837,2.684,7.353-0.31,7.748,2.817
		c-2.773,0.797-4.894-2.125-5.635,0.704c1.628,2.833,9.196-0.274,10.565,2.817c-1.744,2.29-5.376-1.663-7.043,0.705
		c1.185,2.534,5.424,0.927,6.339,2.113c0.123,2.001-4.608-0.851-3.522,2.113c1.021,1.081,4.909-0.175,7.044,1.409
		c-1.993,0.121-4.832-0.606-4.931,1.409c1.464,2.057,5.949,1.094,7.748,2.817c-1.755,0.358-4.25-0.023-4.227,2.113
		c2.544,0.273,4.7,0.935,6.339,2.113c-2.218,0.79-1.595,0.063-4.226,0c0.034,3.018,4.227,1.877,7.043,2.113
		c0.067-1.106-0.094-2.442,1.409-2.113c2.832,1.159,0.088,7.895,3.522,8.452c-0.931,0.008-0.644,1.234-1.409,1.409
		c-2.979,0.396-2.396-2.769-4.931-2.817c-0.673,1.312,2.109,2.354,0,2.817c-1.873-0.24-1.61-2.616-3.521-2.817
		c2.303,3.106,5.669,8.875,8.452,9.157c-1.326-1.727-2.915-3.19-3.522-5.635c2.204-0.144,5.171,0.475,6.339-0.705
		c-0.71-5.375-2.045-8.966,2.817-11.27c1.031,0.612,2.232,1.054,2.113,2.817c-1.78,3.803-4.375,6.115-2.817,10.565
		c-2.113,0-4.226,0-6.339,0c0.138,3.618,6.491,1.021,7.748,3.521c-1.023,0.385-3.64-0.823-3.521,0.705
		c2.403,0.906,3.488,1.805,0.704,2.817c1.985,1.301,5.955,0.619,7.748,2.113c-2.129,0.219-5.478-0.782-5.635,1.409
		c2.444,1.547,8.203-0.221,9.156,2.817c-2.408,1.277-3.278-0.807-6.339-0.704c-0.727,5.591,8.008-1.057,8.452,4.226
		c-2.612,0.499-3.023-1.204-5.635-0.705c-1.068,6.25,7.43-1.007,8.452,3.522c-2.366,0.217-6.105-0.94-5.635,2.113
		c2.714,0.573,6.93-0.356,7.748,2.113c-2.082,0.105-4.972-2.047-5.635,0.704c1.901,1.856,6.958,0.556,8.453,2.818
		c-1.179,1.244-2.36-0.626-4.931,0c-0.327,4.318,7.754,0.229,7.748,4.226c-3.177,0.933-6.819-2.728-7.044,1.409
		c2.78-0.506,9.275-0.332,11.27,2.113c-2.769,0.843-5.294-2.156-7.043,0c0.609,4.556,9.226,1.104,11.27,4.226
		c-2.141,0.442-6.067-0.901-7.043,0.705c0.394,3.362,8.206-0.693,8.452,2.817c-1.878,0-3.757,0-5.635,0
		c-0.676,5.137,9.931-1.01,9.156,4.226c-1.687-0.426-3.213-1.013-5.635-0.705c0.504,3.018,6.047,0.997,7.043,3.522
		c-1.251,2.434-5.161-1.872-4.93,1.409c3.399,0.357,7.621-0.108,9.157,2.113c-2.141,0.441-6.067-0.902-7.044,0.704
		c1.489,2.737,8.372,0.081,9.861,2.817c-1.272-3.431,5.278-2.659,4.226,0c-4.815-0.423-7.656,2.329-10.565,0
		c0.156,5.735,4.496,0.777,7.748,1.409c-0.158,1.332,0.794,1.554,0.705,2.817c-2.787,0.03-6.324-0.689-6.339,2.113
		c2.869-1.257,7.531-0.654,9.861,0.704c-4.242,2.256-8.337-0.046-11.27,0c2.107,3.763,10.974,0.766,12.679,4.931
		c-2.145,0.957-4.808-2.626-4.931,0.704c2.69,1.482,11.764,1.06,7.748,4.931c3.114-0.297,4.937,0.698,6.339,2.113
		c-4.301,1.225-7.121-2.708-9.861-0.704c0.456,4.24,9.271,0.12,10.565,3.521c-1.858,1.651-4.803,0.118-7.043,0
		c0.864,6.262,7.263,1.037,10.565,2.817c-1.633,1.889-5.447,1.596-7.748,2.817c1.079,2.678,7.242,0.271,9.157,2.113
		c-0.7,1.883-6.1-0.934-5.635,2.113c1.999,2.5,5.044-0.387,7.043,2.113c-1.867,0.011-4.147-0.391-4.226,1.409
		c0.816,2.47,6.462,0.111,7.043,2.817c-2.102,1.009-2.395-0.575-4.226,0.705c0.528,5.931,6.029-0.117,8.452,2.113
		c-0.039,0.9-0.903,0.976-0.705,2.113c-1.684,0.429-5.109-0.884-5.635,0.704c2.021,2.207,7.208,1.245,9.157,3.522
		c-1.174,0-2.348,0-3.522,0c0.518,7.046,9.267,0.417,11.271,4.226c-3.246,0.041-6.249,0.326-8.452,1.409
		c2.045,2.554,5.083-0.042,7.747,2.113c-0.011,2.102-5.22-0.993-4.226,2.113c2.927,2.473,7.701,3.099,11.27,4.931
		c-1.325,1.545-6.298-1.787-7.748,0c0.885,0.289,1.439,0.908,1.409,2.113c2.826-0.548,7.706-1.254,9.156,1.409
		c-2.471-0.347-4.585-1.05-7.748-0.704c2.396,5.283,12.171,1.302,15.496,4.226c-3.991,0-7.983,0-11.975,0
		c0.007,6.008,8.352-0.321,9.861,3.522c-1.95,0.633-6.612-1.447-6.339,1.408c3.003-0.866,6.444-1.127,7.043,2.113
		c2.986,0.536,8.342-1.298,9.157,1.408c-5.63,0.358-9.717-1.275-14.088-0.704c1.384,4.876,9.329,0.381,11.271,3.521
		c-2.604,0.45-7.017-0.911-8.453,0.705c1.333,1.249,4.652,0.513,7.044,0.704C195.503,199.779,195.916,198.969,198.271,200.298z
		 M191.229,198.89c1.237-0.405,4.138,0.851,4.226-0.705C194.216,198.59,191.315,197.334,191.229,198.89z M53.175,20.689
		c-0.634-3.357-4.236-3.747-7.043-4.931C45.729,20.153,50.705,19.167,53.175,20.689z M265.89,163.672
		c-0.021,3.075-1.819,7.483,1.408,9.156c-0.405-13.97-0.685-20.844,0-36.626c-1.163-0.011-0.394-1.954-1.408-2.113
		C264.824,144.75,265.963,152.282,265.89,163.672z M267.298,185.507c-0.921-3.427,1.562-10.301-2.113-9.157
		C267.117,178.684,263.661,183.924,267.298,185.507z M267.298,193.255c0-1.879,0-3.757,0-5.635
		c-0.931-0.009-0.644-1.235-1.408-1.409C267.178,187.74,265.756,191.979,267.298,193.255z M267.298,240.447
		c-0.469-15.262,0.938-32.399-0.704-46.487C266.771,208.664,265.465,226.388,267.298,240.447z M221.516,264.395
		c-0.493-2.61-3.109-0.251-4.931-1.409c-2.271-1.444-1.789-5.159-4.931-2.113c-0.682-2.178-1.767-3.449-4.227-2.113
		c-0.269-2.129-5.213-6.132-4.226-4.93c0.196,1.058,3.028,2.966,1.408,3.521c-2.776,0.194-2.153-3.012-4.93-2.817
		c-0.067,1.106,0.094,2.442-1.409,2.113c-1.105-3.591-3.729-5.663-6.339-7.748c-0.206,2.383,4.948,3.445,1.408,4.931
		c-2.47-1.757-3.293-5.159-6.339-6.34c-0.362,2.062,3.507,3.462,1.408,4.931c-2.281-1.709-3.353-4.63-5.635-6.339
		c-0.27,2.423,3.538,4.391,1.409,6.339c-1.739-2.312-3.827-6.223-7.748-4.226c-0.394-2.683-4.61-5.219-5.635-4.931
		c1.325,0.828,4.275,3.653,2.817,4.931c-2.818-0.956-4.726-6.521-7.043-5.635c1.686,0.896,2.867,2.297,2.817,4.93
		c-4.269-0.438-4.305-8.827-8.453-7.043c0.847,2.205,4.343,1.762,3.522,5.635c-3.425-1.05-4.993-7.668-8.452-6.339
		c1.618,0.535,4.713,3.215,2.817,4.93c-3.797-1.145-4.638-8.965-9.157-7.043c2.88,0.643,4.539,2.504,4.931,5.635
		c-3.53-1.165-4.9-6.323-6.339-2.113c-3.063-1.632-3.47-5.922-7.043-7.043c-0.107,2.639,4.785,2.61,2.113,5.635
		c-2.646-1.915-2.244-3.062-5.635-1.409c-1.795-5.254-8.146-9.69-14.087-8.452c3.142,1.409,10.594,1.938,9.156,7.044
		c-2.75-0.067-2.196-3.439-4.93-3.522c-0.752,0.657-0.219,2.599-2.113,2.113c-0.481-3.745-5.211-3.241-4.93-7.748
		c-1.023,0.386-3.641-0.823-3.522,0.704c1.901,0.682,3.399,1.767,3.522,4.227c-4.295-0.179-4.368-8.293-9.157-5.635
		c1.86,0.522,4.976,3.43,3.522,4.931c-3.83-1.58-5.658-8.886-10.565-7.044c1.979,0.634,5.291,3.591,3.522,5.635
		c-1.552-2.205-4.459-3.054-4.226-7.043c-2.359,0.66-4.44-2.529-5.635-0.705c1.783,1.525,6.12,4.183,4.226,7.044
		c-3.552-2.083-4.49-6.779-8.452-8.452c-1.821,0.964,4.565,3.336,1.409,5.635c-2.458-1.549-4.488-7.23-7.043-6.339
		c1.092,0.833,3.981,3.469,2.113,4.93c-3.118-0.403-2.107-4.936-5.635-4.93c-0.11,0.828,0.121,1.999-0.705,2.112
		c-2.965-1.742-5.095-8.036-9.157-6.339c1.419,0.965,5.07,3.336,2.818,5.635c-3.148-1.56-4.588-8.544-9.157-6.339
		c2.075-0.15,4.296,3.153,2.817,4.226c-3.453-1.242-4.531-4.86-7.748-6.339c-0.773,2.249,4.155,2.329,1.409,4.227
		c-2.589,0.436-3.507-4.421-4.93-2.817c0.854-0.216,2.429,2.034,0.704,2.112c-2.786-0.735-2.89-4.153-5.635-4.93
		c-0.421,1.254,2.064,2.925,0,3.521c-1.768-1.076-3.646-5.709-5.635-4.227c0.811,0.229,2.425,3.073,0.705,3.522
		c-3.133-2.044-5.751-8.322-9.861-7.044c1.536,1.986,5.156,1.888,4.931,5.635c-3.77,0.925-4.09-5.266-6.339-3.521
		c0.923,0.011,0.897,1.953,0,2.113c-2.101-1.421-3.475-3.568-5.635-4.931c-0.193,2.065,2.822,2.616,0,3.521
		c-1.789-1.498-2.681-3.894-5.635-4.226c-0.11,0.828,0.121,1.999-0.704,2.112c-2.464-1.077-3.769-7.006-6.339-5.635
		c1.087,0.169,3.375,2.619,1.409,3.522c-3.315-0.911-3.117-5.336-7.043-5.635c-2.287,1.055,3.185,1.26,0.705,2.817
		c-2.397-0.421-1.568-4.067-4.227-4.227c0.008,36.65,1.399,89.426,0.705,126.783c31.623,3.562,64.337,2.632,98.609,4.227
		c9.225,0.429,18.503-1.062,27.47-0.705c1.288,0.052,2.857,1.264,4.226,1.409c8.094,0.858,16.268-1.34,23.948-0.704
		c1.02,0.084,1.295,0.696,2.817,0.704c30.244,0.145,58.429-2.909,93.679-0.704c0.11-32.36-11.021-54.976-34.514-65.505
		c-1.163,0.011-0.395,1.953-1.408,2.113c-2.062-2.869-4.611-5.251-7.044-7.748C219.609,261.661,224.045,262.495,221.516,264.395z
		 M217.993,234.108c1.924-1.135-1.031-2.364-1.408-0.705C217.291,233.401,217.423,233.973,217.993,234.108z M139.106,235.516
		c-0.03-0.97,0.332-1.547,0.705-2.113c-1.054,0.12-2.6-0.251-2.817,0.705C137.998,234.276,138.181,235.267,139.106,235.516z
		 M148.263,237.629C147.325,234.139,144.936,236.529,148.263,237.629L148.263,237.629z M267.298,278.482
		c-0.423-11.492,0.874-29.039-0.704-36.627C267.017,253.347,265.72,270.894,267.298,278.482z M198.976,252.42
		c-0.721,0.083-1.425-3.038-2.112-0.704C197.877,251.34,198.582,254.461,198.976,252.42z M213.768,258.055
		c0.494-1.749-3.012-2.983-3.522-1.408C211.882,256.956,212.131,259.756,213.768,258.055z M245.463,273.551
		c-0.161-1.992-2.206-5.723-3.521-4.227C244.197,270.688,241.578,273.279,245.463,273.551z M266.594,284.821
		c0.916-0.938,0.434-2.126-0.704-2.817C266.01,283.057,265.638,284.603,266.594,284.821z M266.594,314.404
		c0.019-7.103,0.688-19.192-0.704-26.062C266.678,298.828,263.835,305.727,266.594,314.404z M82.758,50.272
		c-1.696,0.22-3.411-3.074-4.93-0.705C78.705,50.756,81.759,53.363,82.758,50.272z M104.593,93.941
		c2.333,0.281,4.474,4.407,6.339,2.817C109.677,95.241,106.381,90.511,104.593,93.941z M125.019,113.664
		c-0.833-0.207-2.661-2.837-3.522-0.705C122.551,112.945,124.378,115.576,125.019,113.664z M142.628,130.568
		c-0.489-0.551-3.93-1.568-4.226,0C140.426,129.584,141.979,132.487,142.628,130.568z"/>
	<path style="fill-rule:evenodd;clip-rule:evenodd;fill:#3D6DAC;" d="M63.74,33.367c-3.132-0.167-8.231-4.438-13.382-4.93
		c3.208,4.309,15.881,5.246,18.313,12.678c-4.462-2.347-8.138-5.479-14.087-6.339c2.677,3.889,8.287,3.397,11.974,5.635
		c1.194,0.725,1.832,2.763,2.817,3.522c1.96,1.508,4.964,1.777,5.635,4.226c-4.245-0.927-10.383-6.047-16.904-7.043
		c4.047,5.344,14.589,4.194,16.904,11.27c-3.497-1.433-6.03-3.831-10.565-4.226c0.266,3.256,4.265,2.779,7.043,3.521
		c2.585,2.815,6.627,4.173,9.157,7.044c-2.32,0.422-8.055-1.792-9.157-4.931c-3.544,3.114,2.481,4.364,4.931,5.635
		c3.29,1.707,7.097,2.638,8.452,4.931c-0.933,2.311-5.83-2.898-9.157-2.817c2.558,4.479,8.626,4.288,12.678,7.043
		c2.733,1.858,3.898,5.265,7.043,6.339c-3.411,0.813-6.617-4.642-11.27-4.93c0.843,3.627,10.536,4.484,11.974,9.861
		c1.633-0.225,2.704,0.113,3.521,0.705c-0.031,1.205,0.523,1.824,1.409,2.113c-3.346,0.198-9.161-6.68-13.382-5.635
		c-0.41,2.522,2.084,2.142,4.226,2.113c3.335,3.473,8.645,4.972,11.974,8.453c-3.817,1.686-5.341-4.977-11.27-3.522
		c2.643,3.697,9.122,3.557,11.27,7.748c0.197,3.298-3.085-0.904-4.227,1.409c0.222,1.656,3.339,0.418,2.817,2.817
		c9.611,1.189,13.049,8.551,19.018,13.382c-3.862-1.13-9.514-10.128-16.2-8.452c4.569,3.883,12.497,4.408,14.792,10.565
		c-2.777-0.979-4.018-3.495-7.748-3.522c4.302,4.621,12.219,5.625,14.791,11.974c-3.94-1.225-6.209-4.122-10.565-4.93
		c1.773,4.691,8.857,4.801,12.678,7.748c1.68,1.296,3.333,3.486,4.226,5.635c0.939,0,1.878,0,2.817,0
		c0.079,1.8,1.292,2.465,2.113,3.522c-3.741-0.495-8.764-5.786-14.087-7.043c1.631,4.327,7.106,4.832,10.565,7.043
		c3.649,2.333,6.023,5.232,9.157,7.748c-4.034,1.235-10.588-7.902-14.792-4.226c7.167,2.459,14.025,5.228,19.018,9.861
		c-4.451,1.531-9.854-5.51-14.087-4.226c3.578,5.813,15.884,2.898,17.608,10.565c-4.212-0.953-6.095-4.236-11.27-4.226
		c2.703,5.279,12.215,3.75,14.791,9.157c-3.603,0.316-4.645-1.929-7.747-2.113c0.754,3.002,4.65,2.862,7.747,3.522
		c2.559,3.077,7.195,4.075,8.452,8.452c-4.427-2.228-9.612-7.182-15.495-5.635c5.099,2.761,11.083,3.186,15.495,6.339
		c2.217,1.584,3.032,4.664,5.636,5.635c-5.012,0.308-9.149-6.34-16.905-5.635c8.259,5.177,18.902,5.589,22.54,14.087
		c-5.383-1.427-7.796-5.822-14.792-5.635c0.855,2.842,3.644,1.354,5.635,2.113c6.024,2.293,11.209,6.628,15.496,10.565
		c-5.531,0.124-10.297-6.603-17.609-7.043c3.423,4.351,11.457,4.835,16.905,8.452c2.038,1.354,2.437,4.844,5.635,4.227
		c-0.24,1.413,0.144,2.204,1.408,2.113c-4.754-0.185-10.943-5.017-16.904-6.34c-0.676,3.762,3.261,2.165,4.931,2.817
		c5.791,2.266,12.11,5.274,15.496,9.861c-5.539-1.74-9.422-5.135-15.496-6.339c0.846,4.222,6.391,3.116,9.156,4.226
		c5.878,2.359,10.231,6.652,14.087,11.27c-4.891-0.984-10.435-7.403-17.608-8.452c3.876,5.046,12.743,5.101,16.2,10.565
		c2.531-1.177,4.678,1.12,4.931,4.227c-5.204-2.075-9.283-5.274-14.792-7.044c-0.054,3.922,4.729,3.202,7.044,4.227
		c5.008,2.216,10.457,4.619,12.678,9.156c-4.083-2.021-7.742-4.466-12.678-5.635c-0.542,4.022,6.358,3.261,9.86,4.931
		c3.404,1.623,6.198,4.144,7.044,7.043c-3.835-1.809-8.886-6.128-13.383-4.931c0.69,2.507,3.969,1.486,5.635,2.113
		c5.163,1.943,8.96,5.68,13.383,8.452c-3.411,1.28-6.666-3.65-11.27-3.521c0.832,2.555,5.18,3.205,8.452,4.931
		c3.931,2.072,7.319,4.382,9.86,7.748c-3.391-0.845-8.551-5.998-14.791-6.34c4.011,4.207,12.107,4.328,14.791,9.861
		c1.175,0,2.349,0,3.522,0c0.434,1.913,1.396,3.299,2.817,4.226c-2.513,0.655-4.367-2.703-7.044-4.226
		c-2.797-1.592-6.322-2.278-9.156-3.521c5.886,6.323,16.193,8.224,21.835,14.791c-2.727,0.715-8.019-5.426-11.27-4.227
		c5.802,3.355,11.377,6.936,16.2,11.271c-2.234,1.64-3.642-2.88-7.044-0.705c-24.685-16.931-57.11-22.899-88.044-32.399
		c-17.689-5.434-38.874-12.592-59.166-15.496c-10.783-5.73-25.064-7.064-38.035-10.565c-5.177-1.397-10.937-3.139-16.905-4.931
		c-6.438-1.933-18.8-2.755-21.13-7.043c-3.562,0.509-5.329-0.775-7.043-2.113c-1.656-5.538,1.968-11.837,3.521-18.313
		c1.343-5.596,1.256-11.622,2.817-16.905c3.11-10.522,7.432-23.447,10.565-35.217c4.328-16.258,8.3-34,13.383-49.305
		c1.516-4.564,1.489-10.023,2.817-14.792c0.367-1.316,1.767-2.184,2.113-3.521c2.684-10.371,3.858-21.425,6.339-31.696
		c5.494-0.576,7.098,3.273,11.974,4.93c0.353-3.202-8.665-6.001-11.27-6.339c-0.991-3.104,2.317-1.909,4.226-2.113
		c3.405,1.88,8.993,4.931,8.452,8.452C60.622,30.381,61.851,32.205,63.74,33.367z M113.75,112.959
		c1.106-0.067,2.442,0.094,2.113-1.409c-0.47,0-0.939,0-1.409,0C114.456,112.257,113.883,112.389,113.75,112.959z"/>
	<path style="fill-rule:evenodd;clip-rule:evenodd;fill:#FFFFFF;" d="M195.454,196.777c-2.392-0.191-5.711,0.545-7.044-0.704
		c1.437-1.616,5.85-0.255,8.453-0.705c-1.941-3.141-9.887,1.354-11.271-3.521c4.371-0.571,8.458,1.062,14.088,0.704
		c-0.815-2.706-6.171-0.872-9.157-1.408c-0.599-3.24-4.04-2.979-7.043-2.113c-0.273-2.855,4.389-0.775,6.339-1.408
		c-1.51-3.843-9.854,2.486-9.861-3.522c3.991,0,7.983,0,11.975,0c-3.325-2.924-13.1,1.057-15.496-4.226
		c3.163-0.346,5.277,0.357,7.748,0.704c-1.45-2.663-6.33-1.957-9.156-1.409c0.03-1.205-0.524-1.824-1.409-2.113
		c1.45-1.787,6.423,1.545,7.748,0c-3.568-1.832-8.343-2.458-11.27-4.931c-0.994-3.106,4.215-0.011,4.226-2.113
		c-2.664-2.155-5.702,0.441-7.747-2.113c2.203-1.083,5.206-1.368,8.452-1.409c-2.004-3.809-10.753,2.82-11.271-4.226
		c1.175,0,2.349,0,3.522,0c-1.949-2.277-7.137-1.315-9.157-3.522c0.525-1.588,3.951-0.275,5.635-0.704
		c-0.198-1.138,0.666-1.213,0.705-2.113c-2.423-2.229-7.924,3.818-8.452-2.113c1.831-1.28,2.124,0.305,4.226-0.705
		c-0.581-2.706-6.227-0.348-7.043-2.817c0.078-1.799,2.358-1.398,4.226-1.409c-1.999-2.5-5.044,0.387-7.043-2.113
		c-0.465-3.047,4.935-0.23,5.635-2.113c-1.915-1.842-8.078,0.565-9.157-2.113c2.301-1.221,6.115-0.928,7.748-2.817
		c-3.302-1.78-9.701,3.444-10.565-2.817c2.241,0.118,5.185,1.651,7.043,0c-1.294-3.402-10.11,0.719-10.565-3.521
		c2.741-2.004,5.561,1.929,9.861,0.704c-1.402-1.415-3.226-2.41-6.339-2.113c4.016-3.871-5.058-3.448-7.748-4.931
		c0.123-3.331,2.786,0.253,4.931-0.704c-1.705-4.165-10.572-1.167-12.679-4.931c2.933-0.046,7.028,2.256,11.27,0
		c-2.33-1.358-6.992-1.961-9.861-0.704c0.016-2.802,3.552-2.083,6.339-2.113c0.089-1.263-0.862-1.485-0.705-2.817
		c-3.252-0.631-7.592,4.327-7.748-1.409c2.909,2.329,5.75-0.423,10.565,0c1.052-2.659-5.498-3.431-4.226,0
		c-1.49-2.737-8.372-0.081-9.861-2.817c0.977-1.606,4.903-0.263,7.044-0.704c-1.536-2.221-5.757-1.756-9.157-2.113
		c-0.23-3.281,3.679,1.025,4.93-1.409c-0.997-2.525-6.539-0.504-7.043-3.522c2.421-0.308,3.948,0.278,5.635,0.705
		c0.775-5.236-9.833,0.911-9.156-4.226c1.878,0,3.756,0,5.635,0c-0.247-3.51-8.058,0.545-8.452-2.817
		c0.977-1.606,4.902-0.263,7.043-0.705c-2.044-3.122-10.66,0.33-11.27-4.226c1.749-2.156,4.275,0.843,7.043,0
		c-1.995-2.444-8.49-2.619-11.27-2.113c0.225-4.136,3.867-0.476,7.044-1.409c0.006-3.998-8.075,0.092-7.748-4.226
		c2.57-0.626,3.751,1.244,4.931,0c-1.495-2.262-6.552-0.961-8.453-2.818c0.664-2.751,3.553-0.599,5.635-0.704
		c-0.818-2.47-5.034-1.541-7.748-2.113c-0.471-3.053,3.269-1.896,5.635-2.113c-1.022-4.529-9.521,2.729-8.452-3.522
		c2.612-0.499,3.022,1.204,5.635,0.705c-0.444-5.283-9.179,1.365-8.452-4.226c3.061-0.103,3.931,1.981,6.339,0.704
		c-0.953-3.038-6.712-1.271-9.156-2.817c0.157-2.191,3.505-1.19,5.635-1.409c-1.793-1.494-5.763-0.812-7.748-2.113
		c2.784-1.012,1.699-1.911-0.704-2.817c-0.119-1.527,2.498-0.319,3.521-0.705c-1.256-2.5-7.609,0.096-7.748-3.521
		c2.113,0,4.226,0,6.339,0c-1.558-4.451,1.038-6.762,2.817-10.565c0.12-1.763-1.082-2.205-2.113-2.817
		c-4.862,2.303-3.527,5.895-2.817,11.27c-1.168,1.179-4.135,0.561-6.339,0.705c0.607,2.444,2.196,3.908,3.522,5.635
		c-2.783-0.282-6.149-6.051-8.452-9.157c1.912,0.201,1.648,2.578,3.521,2.817c2.109-0.463-0.673-1.505,0-2.817
		c2.534,0.048,1.952,3.213,4.931,2.817c0.765-0.174,0.478-1.4,1.409-1.409c-3.434-0.557-0.69-7.293-3.522-8.452
		c-1.503-0.329-1.341,1.006-1.409,2.113c-2.817-0.235-7.01,0.905-7.043-2.113c2.631,0.063,2.008,0.79,4.226,0
		c-1.639-1.178-3.795-1.84-6.339-2.113c-0.023-2.136,2.471-1.755,4.227-2.113c-1.799-1.724-6.284-0.76-7.748-2.817
		c0.099-2.015,2.938-1.288,4.931-1.409c-2.135-1.584-6.023-0.328-7.044-1.409c-1.086-2.964,3.645-0.112,3.522-2.113
		c-0.915-1.186-5.155,0.421-6.339-2.113c1.667-2.367,5.3,1.585,7.043-0.705c-1.369-3.091-8.937,0.015-10.565-2.817
		c0.741-2.829,2.862,0.093,5.635-0.704c-0.395-3.127-6.911-0.133-7.748-2.817c-0.214-2.875,1.471-0.376,2.817-0.705
		c0.054-2.401-2.61-2.086-4.93-2.113c-0.329-1.503,1.006-1.341,2.113-1.408c0.331-2.444-3.822-0.404-4.226-2.113
		c1.498-2.592,6.693-1.388,10.565-1.409c30.108-0.162,60.731,0.804,92.974,1.409c0,0.704,0,1.409,0,2.113
		c1.245-0.633,2.057-1.701,3.521-2.113c37.497,0.669,68.682-0.484,102.132,0.704c0.763,30.218-1.026,59.263,0,86.635
		c1.016,27.124-0.17,53.349,0.704,79.592c1.304,39.167,0.835,86.097,0,121.853c-1.683-1.624-1.977-5.386-0.704-6.339
		c-2.762-0.31-3.817-4.523-1.409-4.227c-0.062-2.521-4.392-0.773-3.521-4.226c1.408,0,2.817,0,4.226,0
		c-0.528-2.289-5.478-0.157-4.93-3.522c1.174,0,2.348,0,3.521,0c-0.263-2.555-5.152-0.482-5.635-2.817
		c-0.839-3.262,2.969,1.234,3.521-1.408c-0.304-1.575-3.471-0.285-4.931-0.705c-0.329-1.503,1.007-1.341,2.113-1.408
		c-0.121-2.696-4.529-1.106-4.227-4.227c1.991-0.582,1.825,0.993,3.522,0.705c0.226-3.278-4.872-1.232-6.34-2.817
		c0.71-2.744,2.425-0.109,4.931-0.705c-0.181-3.575-6.886-0.627-7.748-3.521c1.627-1.424,3.141,0.486,5.635-0.704
		c-1.45-2.07-5.62-1.423-7.747-2.817c0.303-1.575,3.471-0.285,4.93-0.704c-0.098-2.015-2.938-1.288-4.93-1.409
		c1.639-1.992-2.762-2.454-4.931-2.817c-0.194-2.777,4.962-0.204,5.635-2.113c-1.206-1.611-5.377-0.258-7.748-0.704
		c-1.416-3.983-4.097-6.704-7.043-9.156c1.714-1.896,5.623-0.029,7.747,0c-0.43-5.791-10.557,1.903-9.86-4.227
		c1.408,0,2.817,0,4.226,0c-0.305-4.386-6.4,0.166-7.043-2.817c2.144-1.378,6.483-0.56,8.452-2.113
		c-2.092-3.475-8.073,1.137-11.27-1.408c0.795-0.849,2.01-1.276,1.408-3.521c1.042,0.815,1.775,0.815,2.817,0
		c-2.188-2.369-4.971,0.623-7.043,0.704c0.089-1.264-0.862-1.485-0.705-2.817c1.991-0.582,1.825,0.992,3.522,0.704
		c1.33-0.078,0.488-2.329,2.112-2.113c-3.37-0.855-6.449-2.003-9.86-2.817c3.447-2.016,8.251,0.653,11.974,0.705
		c0.222-1.921-4.093-2.876-4.93-1.409c-2.328-1.429-4.879-2.635-9.157-2.113c-1.128-2.771,3.042-0.245,2.817-2.113
		c-0.967-1.381-4.315-0.38-5.635-1.408c-1.128-2.772,3.042-0.245,2.817-2.113c-1.337-1.246-4.51-0.655-5.635-2.113
		c0.088-1.556,2.988-0.299,4.227-0.704c-0.731-4.539-7.926,1.042-7.748-4.931c2.892,1.639,4.839-0.402,7.043-1.408
		c-2.16-2.642-9.434,2.993-9.86-2.113c3.348,0.295,5.08-1.024,7.748-1.408c-2.359-4.605-9.969,3.851-10.565-2.817
		c1.644,0,3.287,0,4.931,0c-1.547-1.741-5.763-0.812-7.748-2.113c1.233-2.084,3.752,0.406,5.635,0
		c0.292-3.814-5.912-1.133-7.748-2.817c0.157-2.191,3.506-1.19,5.635-1.409C195.916,198.969,195.503,199.779,195.454,196.777z
		 M97.549,27.028c-0.391-0.002-0.8,0.57,0,0.704c-0.132,4.593-0.221,9.143,1.409,11.974c29.298,0.914,65.849-1.405,95.792,0.704
		c1.597-1.969,1.088-5.03,1.408-7.748c0.353-2.982,0.375-5.12,0.705-6.339C165.696,27.732,128.48,26.597,97.549,27.028z
		 M118.68,56.611c2.175-0.114,3.982,1.664,5.635,0c-0.398-1.527-3.089-4.36-1.409-5.635c2.626,1.601,2.848,5.604,7.043,5.635
		c-1.46-4.502,0.927-5.896-0.704-10.565c1.636-0.242,3.301-0.456,2.817-2.817c-1.659-0.016-2.074,1.213-4.226,0.705
		c0.542,2.739,0.483,6.373-0.705,9.157c-1.455-4.415-3.269-8.47-7.748-9.861C120.602,48.123,121.343,52.683,118.68,56.611z
		 M208.133,43.933c2.312,2.618-0.707,8.179,1.408,11.974c0.705-0.938,1.161-2.126,2.113-2.817c0.32,1.879,2.741,3.515,4.226,2.113
		c-1.706-2.926-2.323-2.832,0-5.635c-0.989-0.184-0.803-1.545-1.408-2.113c-2.168-0.524-1.354,1.934-3.521,1.409
		c0-1.643,0-3.287,0-4.93C209.028,43.996,209.532,42.759,208.133,43.933z M146.149,46.045c0.952,0.222,1.346,1.003,2.817,0.705
		C149.497,44.348,146.276,44.002,146.149,46.045z M176.437,56.611c-0.822-3.638,1.719-10.64-1.408-11.974
		C175.881,49.882,172.099,54.573,176.437,56.611z M182.071,45.341c-1.232,1.853,1.268,2.289,1.409,4.226
		c0.252,3.455-2.437,5.143-2.817,8.452c2.564,0.662,6.236-3.861,9.86-0.704c2.155-4.352-0.857-5.647,1.409-9.157
		c-0.875-1.473-2.049-2.647-3.522-3.522C186.453,47.566,184.19,45.656,182.071,45.341z M105.297,52.385
		c2.168,0.525,1.354-1.933,3.522-1.409c0.406,0.427,1.648,3.341,0,3.522c-1.106-0.303-0.602-2.216-2.817-1.409
		c-0.509,3.326,2.545,3.089,4.931,3.521c3.287-4.541-0.917-10.375-7.043-11.27C105.263,48.873,107.304,48.313,105.297,52.385z
		 M138.402,48.863c1.249,1.803,1.249,4.856,2.113,7.044c1.227,0.053,2.19-0.157,2.817-0.705c-3.053-3.128-0.116-3.95-1.409-8.452
		C139.143,45.848,140.219,48.802,138.402,48.863z M147.559,56.611c0.801-1.674,0.565-7.318-1.409-8.452
		C147.037,51.87,143.551,55.798,147.559,56.611z M194.045,48.863c1.588,4.093-2.764,7.744,4.227,7.748
		c2.555-1.806,0.158-4.678,1.409-7.043C198.736,48.311,195.604,47.388,194.045,48.863z M201.089,49.567c0,2.113,0,4.226,0,6.339
		c4.143,1.09-0.108-6.213,4.227-4.931c-1.229,1.217-0.78,4.354,0.704,4.931c0.745-2.204,0.254-3.494,0.704-7.044
		C204.511,47.773,202.794,48.413,201.089,49.567z M96.141,56.611c2.475-1.781,2.702-3.535,2.113-7.043
		C92.841,45.607,91.143,56.468,96.141,56.611z M103.184,56.611c-1.517-3.612,0.425-3.714,1.409-6.339
		c-1.316-0.562-2.58-1.177-4.226-1.409C100.462,52.289,99.499,56.774,103.184,56.611z M132.062,55.202
		c1.82,1.732,5.85,1.746,7.043-0.704c-3.333-0.525-0.558-3.493-2.113-4.931c-0.644,1.915-1.31-1.876-3.522-0.705
		C134.108,51.73,132.528,50.816,132.062,55.202z M155.306,57.315c0.313-2.27,1.35-3.816,1.409-6.339
		C152.297,43.302,145.66,58.955,155.306,57.315z M170.802,57.315c1.962-2.399-0.762-5.598,0.704-7.748
		c-1.659,0.016-2.073-1.213-4.226-0.705C165.946,51.665,165.785,58.596,170.802,57.315z M158.828,56.611
		c2.996,0.649,0.046-4.649,2.817-4.226c-0.277,2.859,0.258,4.908,2.817,4.931c0.742-1.688-1.631-3.882,0-7.043
		c-1.169-1.18-4.136-0.561-6.34-0.705C158.853,51.42,158.967,53.89,158.828,56.611z M110.228,77.741
		c3.24,0.986,2.035,6.417,5.635,7.044c1.216-0.427-0.054-3.341,1.409-3.522c-0.038,1.212,0.542,1.806,1.409,2.113
		c0.833-1.75,1.02-4.146,1.409-6.339c-0.952-0.222-1.345-1.002-2.817-0.705C117.278,79.956,111.694,74.847,110.228,77.741z
		 M148.263,85.489c3.094-0.429,3.547-6.458,2.113-9.157c-0.705,0-1.409,0-2.113,0C151.011,79.852,142.259,82.968,148.263,85.489z
		 M132.767,77.741c-0.111,3.634-0.093,7.137,2.817,7.748c2.179-0.996-3.252-3.781,0.705-4.226c-0.728,4.146,4.467,1.341,7.043,3.522
		c0.049-2.064,2.683-1.543,2.113-4.226c-2.279-0.401-3.543,0.213-4.226,1.408c0.015-3.533-7.973-0.413-4.931-4.93
		C134.655,76.812,133.584,77.15,132.767,77.741z M124.314,79.854c-0.582,1.991,0.993,1.825,0.705,3.522
		c1.592-0.001,4.539-3.571,4.226,0.704c3.278-0.44,2.596-3.755,2.113-6.339c-0.705,0-1.409,0-2.113,0
		C130.138,82.246,127.417,79.051,124.314,79.854z M160.94,85.489c4.704,1.134,4.969-0.945,9.157,0.705
		c1.005-0.94,1.005-3.991,0-4.931c-3.011-0.663-1.906,2.79-4.227,2.817c-0.861-3.209,1.933-2.764,1.409-5.635
		C161.262,75.696,157.428,80.828,160.94,85.489z M120.088,82.672c1.341,0.302,1.77,1.518,3.522,1.409
		c0.093-1.736,0.106-3.394-0.705-4.226C120.544,79.371,120.331,81.036,120.088,82.672z M171.506,85.489
		c2.278,2.083,5.039-0.203,6.34,2.113c0.751-0.657,0.219-2.599,2.112-2.113c-0.815,1.042-0.815,1.775,0,2.817
		c1.659,0.016,2.074-1.213,4.227-0.704c0.37-4.404-2.995-0.719-2.817-4.931c-2.337-0.224-4.333-0.106-4.931,1.409
		c-0.132-1.981-1.226-3.001-3.521-2.817C172.683,82.91,172.068,84.173,171.506,85.489z M151.08,87.603
		c3.166,0.358,2.316-3.689,0-3.522C150.176,85.006,150.176,86.677,151.08,87.603z M227.15,112.254
		c-0.975,1.449-3.352-1.616-2.818,2.113c1.688-0.426,3.214-1.013,5.636-0.704c-0.514-1.922,1.399-1.418,1.408-2.817
		C229.49,108.949,228.698,111.743,227.15,112.254z M160.94,113.664c0.327-2.205-0.612-3.145-2.817-2.817
		C157.797,113.051,158.736,113.99,160.94,113.664z M163.054,111.55c-0.065,2.179,2.127,2.099,4.227,2.113
		C167.119,110.965,165.184,110.544,163.054,111.55z M194.75,112.959c1.577,0.483,3.529,2.117,4.931,0.705
		C199.24,110.956,195.439,109.919,194.75,112.959z M153.897,113.664c0.704,0,1.408,0,2.113,0c0.128-1.537-0.577-2.241-2.113-2.113
		C153.897,112.255,153.897,112.959,153.897,113.664z M201.089,112.254c-0.343,2.319,4.061,2.958,4.227,0.705
		C204.221,112.109,202.57,110.708,201.089,112.254z M221.516,114.368c1.271-1.208-0.217-2.77-2.113-2.817
		C219.203,113.392,219.659,114.58,221.516,114.368z M144.037,115.072c0.327-2.205-0.612-3.145-2.817-2.818
		C140.892,114.459,141.832,115.399,144.037,115.072z M147.559,115.072c-0.039,0.9-0.903,0.975-0.705,2.113
		c1.332-0.158,1.555,0.794,2.817,0.705c-0.173-2.175-0.714-3.982-1.408-5.635c-0.704,0-1.409,0-2.113,0
		C145.343,114.47,147.256,113.966,147.559,115.072z M172.915,112.959c0.118-1.527-2.498-0.319-3.521-0.705
		C168.76,114.076,173.372,115.709,172.915,112.959z M178.55,114.368c0.103-1.98-1.726-2.031-3.521-2.113
		C174.776,115.29,176.78,114.975,178.55,114.368z M180.663,114.368c1.887,1.198,6.688,0.44,7.747-1.409
		C185.623,112.212,182.006,111.421,180.663,114.368z M189.819,113.664c0.817,0.591,1.889,0.929,3.521,0.704
		C194.02,111.779,189.881,111.568,189.819,113.664z M212.358,114.368c0.708-2.351-0.978-2.31-2.817-2.113
		C209.329,114.11,210.517,114.566,212.358,114.368z M217.289,114.368c0.892-2.77-1.661-2.095-3.521-2.113
		C213.509,114.392,216.062,113.717,217.289,114.368z M160.236,117.185c2.583,0,5.165,0,7.748,0
		C168.188,113.486,160.744,115.172,160.236,117.185z M183.48,115.776c2.314,3.992,7.379,0.6,12.678,2.113
		C192.637,113,188.578,117.399,183.48,115.776z M206.724,115.776c-0.564,2.678,3.331,0.896,4.931,1.409
		C211.885,114.754,207.975,114.608,206.724,115.776z M138.402,117.185c0.469,0,0.939,0,1.409,0c0-0.47,0-0.939,0-1.409
		c-0.47,0-0.939,0-1.409,0C138.402,116.246,138.402,116.715,138.402,117.185z M144.741,116.481
		c-0.131-1.043-1.702-0.646-2.817-0.705C140.42,118.367,145.51,118.954,144.741,116.481z M169.394,117.185
		c1.046,1.109,3.146,0.785,2.817-1.409C170.605,115.58,169.562,115.946,169.394,117.185z M177.846,116.481
		c-0.818-0.591-1.889-0.929-3.522-0.705C173.082,118.928,178.051,118.309,177.846,116.481z M215.88,117.89
		c0.213-1.856-0.975-2.312-2.817-2.113C212.355,118.127,214.04,118.086,215.88,117.89z M217.993,117.89c0.939,0,1.879,0,2.817,0
		C221.365,115.177,217.438,115.177,217.993,117.89z M225.741,116.481c-2.154,0.511-2.071-1.215-4.226-0.705
		C221.019,118.804,225.18,118.068,225.741,116.481z M230.672,116.481c-0.952-0.222-1.346-1.003-2.817-0.705
		C226.726,117.738,230.896,117.724,230.672,116.481z M205.315,117.89c1.128-1.961-3.042-1.948-2.817-0.705
		C203.45,117.407,203.843,118.188,205.315,117.89z M147.559,130.568c1.054-0.12,2.599,0.251,2.817-0.705
		C149.439,128.949,147.755,128.935,147.559,130.568z M153.193,134.089c1.408,0,2.817,0,4.226,0c0.12-2.902-3.148-1.323-1.408-4.226
		c-0.705,0-1.409,0-2.113,0C155.131,132.358,153.429,131.595,153.193,134.089z M158.828,131.272c0.9,0.039,0.976,0.903,2.112,0.705
		c0.038-1.212-0.542-1.806-1.408-2.113C159.534,130.57,158.962,130.702,158.828,131.272z M167.28,131.977
		c0.212-1.856-0.976-2.312-2.817-2.113C163.93,132.342,166.306,133.016,167.28,131.977z M180.663,130.568
		c1.602,3.51,7.112,0.564,7.747,4.226c0.04-0.43,0.105-0.834,0.705-0.705c0.43-0.04,0.834-0.105,0.704-0.704
		c-3.502-2.552,2.434,0.247,2.817-2.113C187.399,129.19,185.944,131.34,180.663,130.568z M199.681,131.977
		c0.322-2.201-1.505-2.252-3.522-2.113C195.836,132.064,197.663,132.115,199.681,131.977z M220.106,131.977c3.287,0,6.574,0,9.861,0
		C229.832,128.769,221.858,130.44,220.106,131.977z M170.098,131.272c-0.9-0.039-0.976-0.903-2.113-0.704
		C166.89,132.301,170.377,132.639,170.098,131.272z M179.958,131.272c-0.817-0.591-1.888-0.929-3.521-0.704
		C176.432,133.018,179.266,132.873,179.958,131.272z M204.61,134.794c3.401-0.211,0.038-3.101,4.931-2.113
		c0.322-2.201-1.505-2.251-3.521-2.113C205.614,132.041,204.273,132.578,204.61,134.794z M209.541,134.089
		c1.165,1.653,4.109,1.525,7.044,1.409c-0.707-2.979-0.894-2.396-1.409-4.93c-0.704,0-1.408,0-2.113,0
		C215.084,134.686,211.26,132.962,209.541,134.089z M172.211,133.385c-0.668,2.545,2.773,0.982,4.226,1.409
		C176.272,132.175,173.938,132.82,172.211,133.385z M196.863,134.794c0.212-1.856-0.976-2.312-2.818-2.113
		C193.338,135.032,195.022,134.99,196.863,134.794z M201.089,133.385c-0.817-0.591-1.889-0.929-3.521-0.705
		C196.889,135.27,201.027,135.481,201.089,133.385z M158.123,134.794c1.452-0.426,4.894,1.137,4.227-1.409c-1.409,0-2.817,0-4.227,0
		C158.123,133.855,158.123,134.324,158.123,134.794z M167.984,134.794c1.212,0.038,1.806-0.542,2.113-1.409
		C168.99,133.452,167.655,133.291,167.984,134.794z M181.367,134.794c1.086-2.126-3.645-1.853-3.521-0.705
		C178.663,134.681,179.733,135.019,181.367,134.794z M183.48,134.794c0.469,0,0.938,0,1.408,0c0-0.47,0-0.939,0-1.409
		c-0.47,0-0.939,0-1.408,0C183.48,133.855,183.48,134.324,183.48,134.794z M218.697,134.794c3.649,0.108,8.232-0.719,9.157,2.113
		c-2.847,0.308-4.86,0.769-8.452,0c0.813,4.574,7.02,0.643,10.565,1.409c-1.672-2.835,1.122-1.73,1.408-4.227
		C228.903,134.709,221.092,131.498,218.697,134.794z M156.715,135.498c-1.174,0-2.348,0-3.521,0
		C153.197,137.644,157.325,138.413,156.715,135.498z M160.236,136.203c0.24,2.143,5.577,2.829,7.044,1.409
		C165.836,136.338,161.886,135.068,160.236,136.203z M173.619,138.316c0.215-1.858-1.471-1.817-2.817-2.113
		C170.095,138.554,171.779,138.512,173.619,138.316z M175.732,137.611c0.936,0.915,2.621,0.928,2.817-0.705
		C177.613,135.992,175.929,135.979,175.732,137.611z M184.889,136.907c-1.659,0.016-2.073-1.213-4.226-0.704
		C179.889,138.953,184.858,139.026,184.889,136.907z M187.002,137.611c0.952,0.222,1.345,1.002,2.817,0.705
		C190.35,135.914,187.129,135.568,187.002,137.611z M194.75,139.02c0.326-2.205-0.612-3.144-2.817-2.817
		C191.605,138.408,192.545,139.347,194.75,139.02z M198.271,138.316c1.459-0.419,4.627,0.87,4.931-0.705
		C201.458,136.25,199.013,135.658,198.271,138.316z M208.133,138.316c0.212-1.856-0.976-2.312-2.817-2.113
		C205.103,138.059,206.29,138.514,208.133,138.316z M213.062,138.316c0-0.705,0-1.409,0-2.113c-0.704,0-1.408,0-2.112,0
		C210.822,137.739,211.526,138.443,213.062,138.316z M217.993,138.316c0.128-1.537-0.576-2.241-2.113-2.113
		C215.753,137.739,216.457,138.443,217.993,138.316z M159.532,139.02c-0.993,2.249,4.215,1.78,4.226,0.704
		C161.656,139.881,161.363,137.124,159.532,139.02z M170.098,141.133c0.102-1.98-1.726-2.032-3.521-2.113
		C165.684,141.79,168.237,141.115,170.098,141.133z M176.437,141.133c0.103-1.98-1.725-2.032-3.521-2.113
		C172.023,141.79,174.576,141.115,176.437,141.133z M178.55,141.133c0.936,0.915,2.621,0.928,2.817-0.705
		C180.431,139.514,178.746,139.5,178.55,141.133z M191.229,139.724c-2.349,0-4.696,0-7.044,0
		C184.083,142.984,191.221,142.477,191.229,139.724z M163.054,153.812c1.331-0.312,4.245,0.958,3.522-1.409
		c-1.175,0-2.349,0-3.522,0C163.054,152.872,163.054,153.342,163.054,153.812z M173.619,153.812
		c1.086-2.126-3.645-1.853-3.521-0.705C170.915,153.698,171.986,154.036,173.619,153.812z M177.846,153.812
		c1.248-0.161,3.527,0.709,2.817-1.409c-0.939,0-1.879,0-2.817,0C177.846,152.872,177.846,153.342,177.846,153.812z M183.48,153.812
		c1.248-0.161,3.527,0.709,2.817-1.409c-0.939,0-1.879,0-2.817,0C183.48,152.872,183.48,153.342,183.48,153.812z M190.523,153.107
		c-0.9-0.039-0.976-0.903-2.113-0.704C187.315,154.136,190.803,154.474,190.523,153.107z M198.271,153.812
		c0.993-2.249-4.215-1.78-4.227-0.705C194.878,153.918,196.535,153.904,198.271,153.812z M200.385,153.812
		c2.141,0.442,6.066-0.902,7.043,0.704c-0.292,1.586-3.861-0.105-3.521,2.113c2.459-0.358,5.318-0.317,7.044-1.409
		c-1.248-0.161-3.527,0.71-2.817-1.409c2.348,0,4.695,0,7.043,0C213.695,151.462,201.142,151.573,200.385,153.812z M220.106,153.812
		c0.993-2.249-4.215-1.78-4.227-0.705C216.713,153.918,218.37,153.904,220.106,153.812z M225.741,152.403
		c-1.023,0.385-3.641-0.823-3.521,0.704C223.116,154.067,225.67,154.195,225.741,152.403z M230.672,153.107
		c-0.833-0.811-2.49-0.797-4.227-0.704C225.452,154.651,230.66,154.183,230.672,153.107z M213.062,155.924
		c2.505,1.037,9.507,1.268,11.975,0C221.456,155.316,215.385,153.655,213.062,155.924z M168.688,156.629
		c1.452-0.426,4.894,1.137,4.227-1.409c-1.409,0-2.817,0-4.227,0C168.688,155.689,168.688,156.159,168.688,156.629z M178.55,155.924
		c-0.817-0.591-1.889-0.929-3.521-0.704C173.941,157.346,178.673,157.073,178.55,155.924z M183.48,156.629c0.469,0,0.938,0,1.408,0
		c0-0.47,0-0.939,0-1.409c-0.47,0-0.939,0-1.408,0C183.48,155.689,183.48,156.159,183.48,156.629z M194.75,155.924
		c-0.817-0.591-1.889-0.929-3.521-0.704C190.142,157.346,194.873,157.073,194.75,155.924z M201.793,155.22
		c-1.023,0.385-3.641-0.823-3.521,0.704C199.295,155.539,201.912,156.748,201.793,155.22z M231.376,155.924
		c-0.832-0.811-2.489-0.797-4.226-0.704C226.156,157.469,231.364,157,231.376,155.924z M165.871,158.742
		c1.452-0.426,4.894,1.137,4.227-1.409c-1.409,0-2.817,0-4.227,0C165.871,157.803,165.871,158.272,165.871,158.742z
		 M175.732,158.742c3.896,0.649,13.476,2.046,16.2-0.704C186.663,158.432,179.865,156.428,175.732,158.742z M201.793,158.742
		c-1.687-0.426-3.213-1.013-5.635-0.704C195.443,160.452,201.449,159.715,201.793,158.742z M210.245,158.742
		c-1.99,0.582-1.824-0.993-3.521-0.704C206.312,160.894,209.621,160.274,210.245,158.742z M229.968,160.15
		c-1.163-3.513-4.618-0.859-8.452-2.113C222.165,161.614,225.698,159.378,229.968,160.15z M217.289,160.15
		c0.993-2.249-4.215-1.78-4.227-0.704C215.217,158.935,215.135,160.662,217.289,160.15z M207.428,162.968c1.409,0,2.817,0,4.227,0
		c-0.87-2.279,2.279-0.538,1.408-2.817C211.536,161.441,208.702,161.425,207.428,162.968z M169.394,162.264
		c3.396-1.294,3.297,1.437,7.747,0.704C177.014,160.899,169.848,159.432,169.394,162.264z M198.271,162.264
		c0.995,1.065,3.421,2.225,4.931,0.704C204.024,160.08,198.305,160.138,198.271,162.264z M182.775,162.968
		c4.328,1.037,6.92,0.83,11.975,0C191.177,161.544,185.073,160.823,182.775,162.968z M215.88,162.968
		c1.685-0.429,5.11,0.884,5.636-0.704C220.485,161.317,215.937,160.824,215.88,162.968z M229.968,161.559
		c-2.937,0.749-3.107,0.183-6.34,0C223.005,163.816,230.591,163.816,229.968,161.559z M182.775,165.785
		c-0.952-0.221-1.345-1.002-2.817-0.704C179.661,167.716,182.068,167.248,182.775,165.785z M187.002,165.785
		C189.375,167.924,189.138,163.181,187.002,165.785L187.002,165.785z M197.567,165.081c-1.644,0-3.287,0-4.931,0
		C192.771,167.528,197.689,167.943,197.567,165.081z M204.61,167.194c-0.122-2.225-2.786-1.91-4.93-2.113
		C199.468,167.641,203.436,166.021,204.61,167.194z M206.724,166.49c1.667,1.62,6.322,0.252,9.156,0.704
		C215.844,164.53,207.905,164.576,206.724,166.49z M219.402,165.785c1.115,2.251,7.89,3.097,8.452,0
		C224.315,166.607,221.714,163.988,219.402,165.785z M232.785,167.194c0.212-1.855-0.976-2.312-2.817-2.113
		C229.26,167.432,230.944,167.391,232.785,167.194z M183.48,168.603c0.921,1.549,7.448,3.602,9.86,0.704
		C190.615,168.719,185.352,167.797,183.48,168.603z M194.045,170.011c0.705,0,1.409,0,2.113,0c0.091-1.265-0.699-1.648-2.113-1.408
		C194.045,169.072,194.045,169.542,194.045,170.011z M201.793,170.011c-0.427-0.406-3.341-1.648-3.521,0
		C198.699,170.417,201.612,171.66,201.793,170.011z M204.61,170.716c1.212,0.038,1.806-0.542,2.113-1.409
		C205.617,169.375,204.281,169.213,204.61,170.716z M195.454,184.099c0.908,0.97,3.06,0.697,4.931,0.705
		C201.207,181.915,195.487,181.973,195.454,184.099z M215.88,183.394c0.319,2.177,3.731,1.69,0.705,3.521
		c0.952,0.222,1.345,1.003,2.817,0.705c-0.974-2.852,1.528-2.229,1.408-4.227C219.208,183.052,217.213,181.997,215.88,183.394z
		 M226.445,184.803c0.213-1.856-0.975-2.312-2.817-2.113C223.053,185.21,225.127,186.186,226.445,184.803z M232.785,183.394
		c-1.66,0.016-2.074-1.213-4.227-0.704C228.062,185.717,232.223,184.981,232.785,183.394z M203.202,187.621c1.174,0,2.348,0,3.521,0
		c-0.626-2.055-0.899-2.431,0.704-3.522c-0.817-0.591-1.888-0.929-3.521-0.705C205.14,185.888,203.438,185.126,203.202,187.621z
		 M208.837,187.621c1.408,0,2.817,0,4.226,0c0.453-1.548,0.928-2.341,0-4.227c-0.704,0-1.408,0-2.112,0
		C211.955,186.512,208.566,185.237,208.837,187.621z M194.75,186.916c1.023,1.09,3.605,0.621,5.635,0.705
		C201.215,184.614,194.817,184.793,194.75,186.916z M221.516,186.916c1.564,0.548,2.746,1.479,4.93,1.409
		c-1.172,2.212,2.62,2.878,0.705,3.521c-2.184,0.07-3.907-0.319-4.931-1.408c0.829-0.11,1.999,0.121,2.112-0.705
		c-0.488-0.551-3.93-1.567-4.226,0c0.766,0.169,1.691,1.16,0.704,1.409c-2.576,0.417-5.562-2.376-5.635,1.408
		c6.417-0.547,10.767,0.973,16.904,0.705c-0.163-2.289-1.068-4.437,0.705-5.635C230.06,185.365,223.981,185.337,221.516,186.916z
		 M195.454,190.438c1.086-2.127-3.645-1.854-3.521-0.705C192.75,190.325,193.82,190.663,195.454,190.438z M203.202,189.733
		c-0.817-0.591-1.889-0.929-3.521-0.704C198.594,191.156,203.325,190.882,203.202,189.733z M208.837,191.142
		c-1.878,0-3.757,0-5.635,0c0.28,3.006,5.902,0.672,8.452,1.408c0.526-2.17-2.429-0.858-1.409-3.521
		c-1.023,0.386-3.64-0.823-3.521,0.704C207.556,190.075,208.32,190.484,208.837,191.142z M213.062,190.438
		c1.605,0.196,2.648-0.17,2.817-1.409C214.632,189.19,212.353,188.319,213.062,190.438z M210.245,195.368
		c-0.837-1.163-7.353-2.952-7.747,0c5.093,0.539,12.867,3.129,14.791-0.704C214.484,193.955,212.717,194.231,210.245,195.368z
		 M220.811,196.777c2.793-0.26,6.75,0.646,8.452-0.704C229.582,192.632,220.857,194.043,220.811,196.777z M210.245,209.456
		c0.938,0.916,2.126,0.433,2.817-0.705C212.127,207.836,210.442,207.823,210.245,209.456z M215.88,209.456
		c2.279,2.088,7.095,0.033,11.975,0.704C226.694,206.846,217.986,207.995,215.88,209.456z M229.968,209.456
		c0.832,0.811,2.489,0.797,4.226,0.704c0-0.47,0-0.939,0-1.409c-0.706,0.003-0.838-0.57-1.408-0.704
		C233.289,209.959,229.464,207.542,229.968,209.456z M218.697,212.977c1.703,1.35,5.66,0.444,8.453,0.704
		C226.458,210.527,220.067,211.913,218.697,212.977z M233.489,212.273c-0.833-0.812-2.49-0.798-4.227-0.705
		C228.767,214.596,232.927,213.86,233.489,212.273z M213.768,213.681c1.248-0.16,3.527,0.71,2.817-1.408c-0.939,0-1.879,0-2.817,0
		C213.768,212.742,213.768,213.211,213.768,213.681z M213.768,214.385C209.256,213.573,212.221,216.537,213.768,214.385
		L213.768,214.385z M217.993,215.794c0.47,0,0.939,0,1.409,0c0-0.47,0-0.939,0-1.409c-0.47,0-0.939,0-1.409,0
		C217.993,214.855,217.993,215.325,217.993,215.794z M229.968,216.499c0.212-1.855-0.976-2.312-2.817-2.113
		C226.938,216.242,228.125,216.697,229.968,216.499z M225.741,215.794c-0.832-0.812-2.489-0.797-4.226-0.704
		C220.521,217.338,225.729,216.87,225.741,215.794z M234.897,215.794c0.119-1.527-2.498-0.319-3.521-0.704
		C230.336,217.317,235.423,218.477,234.897,215.794z M213.768,219.316c0.938,0,1.878,0,2.817,0
		C216.733,217.01,213.28,216.536,213.768,219.316z M229.968,217.908c0.22,2.361,3.191,1.974,5.635,2.112
		C235.214,217.875,231.035,217.192,229.968,217.908z M222.924,218.612c-0.832-0.812-2.489-0.797-4.227-0.704
		C218.201,220.935,222.361,220.199,222.924,218.612z M227.15,218.612c-1.055,0.12-2.6-0.252-2.818,0.704
		C225.269,220.231,226.953,220.245,227.15,218.612z M234.193,231.995c0-0.939,0-1.879,0-2.817c-0.939,0-1.878,0-2.817,0
		C230.893,231.539,232.558,231.751,234.193,231.995z M227.854,231.291c0.704,0,1.408,0,2.113,0c0.091-1.266-0.7-1.648-2.113-1.409
		C227.854,230.351,227.854,230.821,227.854,231.291z M235.603,233.403c-1.513-1.305-5.16-0.475-7.748-0.704
		C227.56,235.599,235.078,235.703,235.603,233.403z M229.968,238.333c1.605,0.197,2.647-0.17,2.817-1.408
		C231.536,237.085,229.258,236.215,229.968,238.333z M227.854,239.743c-1.023,0.385-3.641-0.823-3.522,0.704
		C225.356,240.061,227.973,241.27,227.854,239.743z M239.828,253.125c-1.411-0.287-5.224-1.744-6.339,0
		C234.38,253.933,239.043,254.54,239.828,253.125z M236.307,257.351c1.168,1.18,4.135,0.561,6.339,0.704
		C242.064,255.822,237.055,255.464,236.307,257.351z"/>
	<path style="fill-rule:evenodd;clip-rule:evenodd;" d="M213.062,160.15c0.871,2.279-2.278,0.539-1.408,2.817
		c-1.409,0-2.817,0-4.227,0C208.702,161.425,211.536,161.441,213.062,160.15z"/>
	<path style="fill-rule:evenodd;clip-rule:evenodd;fill:#FFFFFF;" d="M265.89,186.211c0.765,0.174,0.478,1.4,1.408,1.409
		c0,1.878,0,3.756,0,5.635C265.756,191.979,267.178,187.74,265.89,186.211z"/>
	<path style="fill-rule:evenodd;clip-rule:evenodd;fill:#0071BC;" d="M220.106,259.464c2.433,2.497,4.981,4.879,7.044,7.748
		c1.014-0.16,0.245-2.103,1.408-2.113c23.492,10.529,34.624,33.145,34.514,65.505c-35.25-2.205-63.435,0.849-93.679,0.704
		c-1.522-0.008-1.798-0.62-2.817-0.704c-7.681-0.636-15.854,1.562-23.948,0.704c-1.369-0.146-2.938-1.357-4.226-1.409
		c-8.966-0.356-18.245,1.134-27.47,0.705c-34.272-1.595-66.986-0.665-98.609-4.227c0.695-37.357-0.696-90.133-0.705-126.783
		c2.658,0.159,1.83,3.806,4.227,4.227c2.48-1.558-2.992-1.763-0.705-2.817c3.927,0.299,3.728,4.724,7.043,5.635
		c1.967-0.903-0.322-3.354-1.409-3.522c2.571-1.371,3.875,4.558,6.339,5.635c0.825-0.113,0.594-1.284,0.704-2.112
		c2.954,0.332,3.846,2.728,5.635,4.226c2.822-0.905-0.193-1.456,0-3.521c2.16,1.362,3.534,3.51,5.635,4.931
		c0.897-0.16,0.923-2.103,0-2.113c2.25-1.744,2.57,4.446,6.339,3.521c0.226-3.747-3.395-3.648-4.931-5.635
		c4.11-1.278,6.729,5,9.861,7.044c1.721-0.449,0.106-3.293-0.705-3.522c1.988-1.482,3.867,3.15,5.635,4.227
		c2.064-0.597-0.421-2.268,0-3.521c2.745,0.776,2.849,4.194,5.635,4.93c1.725-0.078,0.149-2.328-0.704-2.112
		c1.423-1.604,2.341,3.253,4.93,2.817c2.746-1.897-2.182-1.978-1.409-4.227c3.217,1.479,4.295,5.097,7.748,6.339
		c1.479-1.072-0.742-4.376-2.817-4.226c4.569-2.205,6.008,4.779,9.157,6.339c2.252-2.299-1.399-4.67-2.818-5.635
		c4.062-1.697,6.192,4.597,9.157,6.339c0.826-0.113,0.594-1.284,0.705-2.112c3.527-0.006,2.517,4.526,5.635,4.93
		c1.868-1.461-1.021-4.097-2.113-4.93c2.556-0.892,4.585,4.79,7.043,6.339c3.157-2.299-3.23-4.671-1.409-5.635
		c3.962,1.673,4.9,6.369,8.452,8.452c1.894-2.861-2.443-5.519-4.226-7.044c1.195-1.824,3.276,1.365,5.635,0.705
		c-0.233,3.989,2.674,4.838,4.226,7.043c1.769-2.044-1.542-5.001-3.522-5.635c4.907-1.842,6.736,5.464,10.565,7.044
		c1.454-1.501-1.662-4.408-3.522-4.931c4.789-2.658,4.861,5.456,9.157,5.635c-0.123-2.46-1.621-3.545-3.522-4.227
		c-0.119-1.527,2.499-0.318,3.522-0.704c-0.281,4.507,4.449,4.003,4.93,7.748c1.894,0.485,1.361-1.456,2.113-2.113
		c2.734,0.083,2.18,3.455,4.93,3.522c1.438-5.106-6.015-5.635-9.156-7.044c5.941-1.238,12.292,3.198,14.087,8.452
		c3.391-1.653,2.988-0.506,5.635,1.409c2.672-3.024-2.22-2.996-2.113-5.635c3.574,1.121,3.98,5.411,7.043,7.043
		c1.438-4.21,2.809,0.948,6.339,2.113c-0.392-3.131-2.051-4.992-4.931-5.635c4.52-1.922,5.36,5.898,9.157,7.043
		c1.896-1.715-1.199-4.395-2.817-4.93c3.459-1.329,5.027,5.289,8.452,6.339c0.82-3.873-2.676-3.43-3.522-5.635
		c4.148-1.784,4.185,6.604,8.453,7.043c0.05-2.633-1.132-4.033-2.817-4.93c2.317-0.887,4.225,4.679,7.043,5.635
		c1.458-1.277-1.492-4.103-2.817-4.931c1.024-0.288,5.241,2.248,5.635,4.931c3.921-1.997,6.009,1.913,7.748,4.226
		c2.129-1.948-1.679-3.916-1.409-6.339c2.282,1.709,3.354,4.63,5.635,6.339c2.099-1.469-1.771-2.869-1.408-4.931
		c3.046,1.181,3.869,4.583,6.339,6.34c3.54-1.485-1.614-2.548-1.408-4.931c2.61,2.085,5.233,4.157,6.339,7.748
		c1.503,0.329,1.342-1.007,1.409-2.113c2.776-0.194,2.153,3.012,4.93,2.817c1.62-0.556-1.212-2.464-1.408-3.521
		c-0.987-1.202,3.957,2.801,4.226,4.93c2.46-1.336,3.545-0.064,4.227,2.113c3.142-3.046,2.66,0.669,4.931,2.113
		c1.821,1.158,4.438-1.201,4.931,1.409C224.045,262.495,219.609,261.661,220.106,259.464z"/>
	<path style="fill-rule:evenodd;clip-rule:evenodd;fill:#0071BC;" d="M148.263,237.629
		C144.936,236.529,147.325,234.139,148.263,237.629L148.263,237.629z"/>
	<path style="fill-rule:evenodd;clip-rule:evenodd;fill:#0071BC;" d="M196.863,251.716c0.688-2.334,1.392,0.787,2.112,0.704
		C198.582,254.461,197.877,251.34,196.863,251.716z"/>
	<path style="fill-rule:evenodd;clip-rule:evenodd;fill:#3D6DAC;" d="M241.941,269.325c1.315-1.496,3.36,2.234,3.521,4.227
		C241.578,273.279,244.197,270.688,241.941,269.325z"/>
	<path style="fill-rule:evenodd;clip-rule:evenodd;" d="M199.681,49.567c-1.251,2.366,1.146,5.237-1.409,7.043
		c-6.99-0.004-2.639-3.655-4.227-7.748C195.604,47.388,198.736,48.311,199.681,49.567z"/>
	<path style="fill-rule:evenodd;clip-rule:evenodd;" d="M133.471,48.863c2.212-1.172,2.878,2.62,3.522,0.705
		c1.555,1.438-1.22,4.406,2.113,4.931c-1.193,2.45-5.224,2.437-7.043,0.704C132.528,50.816,134.108,51.73,133.471,48.863z"/>
	<path style="fill-rule:evenodd;clip-rule:evenodd;" d="M232.785,187.621c-1.773,1.198-0.868,3.346-0.705,5.635
		c-6.138,0.268-10.487-1.252-16.904-0.705c0.073-3.784,3.059-0.991,5.635-1.408c0.987-0.249,0.062-1.24-0.704-1.409
		c0.296-1.567,3.737-0.551,4.226,0c-0.113,0.826-1.283,0.595-2.112,0.705c1.023,1.089,2.747,1.479,4.931,1.408
		c1.915-0.644-1.877-1.31-0.705-3.521c-2.184,0.07-3.365-0.861-4.93-1.409C223.981,185.337,230.06,185.365,232.785,187.621z"/>
</g>
</svg>
